<svg width="278" height="226" viewBox="0 0 278 226" fill="none" xmlns="http://www.w3.org/2000/svg">
<path d="M14.8846 118V108.2H16.5646V116.684H20.9326V118H14.8846ZM25.5018 118.168C24.8018 118.168 24.1858 118.019 23.6538 117.72C23.1218 117.412 22.7064 116.983 22.4078 116.432C22.1091 115.881 21.9598 115.247 21.9598 114.528C21.9598 113.781 22.1044 113.128 22.3938 112.568C22.6924 112.008 23.1078 111.569 23.6398 111.252C24.1811 110.935 24.8064 110.776 25.5158 110.776C26.2064 110.776 26.8084 110.93 27.3218 111.238C27.8351 111.546 28.2318 111.961 28.5118 112.484C28.7918 112.997 28.9318 113.576 28.9318 114.22C28.9318 114.313 28.9318 114.416 28.9318 114.528C28.9318 114.64 28.9224 114.757 28.9038 114.878H23.1638V113.8H27.2378C27.2191 113.287 27.0464 112.885 26.7198 112.596C26.3931 112.297 25.9871 112.148 25.5018 112.148C25.1564 112.148 24.8391 112.227 24.5498 112.386C24.2604 112.545 24.0318 112.783 23.8638 113.1C23.6958 113.408 23.6118 113.8 23.6118 114.276V114.682C23.6118 115.121 23.6911 115.499 23.8498 115.816C24.0178 116.133 24.2418 116.376 24.5218 116.544C24.8111 116.703 25.1331 116.782 25.4878 116.782C25.8798 116.782 26.2018 116.698 26.4538 116.53C26.7151 116.362 26.9064 116.138 27.0278 115.858H28.7358C28.6051 116.297 28.3904 116.693 28.0918 117.048C27.7931 117.393 27.4244 117.669 26.9858 117.874C26.5471 118.07 26.0524 118.168 25.5018 118.168ZM30.8329 118V110.174C30.8329 109.633 30.9216 109.199 31.0989 108.872C31.2856 108.536 31.5516 108.293 31.8969 108.144C32.2423 107.995 32.6529 107.92 33.1289 107.92H33.9689V109.348H33.3809C33.0729 109.348 32.8489 109.413 32.7089 109.544C32.5783 109.665 32.5129 109.88 32.5129 110.188V118H30.8329ZM29.8249 112.358V110.944H34.1089V112.358H29.8249ZM38.6212 118C38.1452 118 37.7299 117.925 37.3752 117.776C37.0299 117.627 36.7592 117.379 36.5632 117.034C36.3672 116.689 36.2692 116.222 36.2692 115.634V112.358H35.0652V110.944H36.2692L36.4652 109.082H37.9492V110.944H39.8672V112.358H37.9492V115.634C37.9492 115.989 38.0239 116.236 38.1732 116.376C38.3319 116.507 38.5932 116.572 38.9572 116.572H39.8252V118H38.6212ZM44.9217 118V108.2H46.6017V116.684H50.9697V118H44.9217ZM55.5249 118.168C54.8529 118.168 54.2462 118.014 53.7049 117.706C53.1729 117.389 52.7529 116.955 52.4449 116.404C52.1462 115.844 51.9969 115.205 51.9969 114.486C51.9969 113.749 52.1509 113.105 52.4589 112.554C52.7669 111.994 53.1869 111.56 53.7189 111.252C54.2602 110.935 54.8669 110.776 55.5389 110.776C56.2109 110.776 56.8129 110.935 57.3449 111.252C57.8862 111.56 58.3062 111.989 58.6049 112.54C58.9129 113.091 59.0669 113.735 59.0669 114.472C59.0669 115.209 58.9129 115.853 58.6049 116.404C58.2969 116.955 57.8722 117.389 57.3309 117.706C56.7989 118.014 56.1969 118.168 55.5249 118.168ZM55.5249 116.726C55.8609 116.726 56.1642 116.642 56.4349 116.474C56.7149 116.306 56.9389 116.054 57.1069 115.718C57.2749 115.382 57.3589 114.967 57.3589 114.472C57.3589 113.977 57.2749 113.567 57.1069 113.24C56.9482 112.904 56.7289 112.652 56.4489 112.484C56.1782 112.316 55.8749 112.232 55.5389 112.232C55.2122 112.232 54.9089 112.316 54.6289 112.484C54.3489 112.652 54.1249 112.904 53.9569 113.24C53.7889 113.567 53.7049 113.977 53.7049 114.472C53.7049 114.967 53.7889 115.382 53.9569 115.718C54.1249 116.054 54.3442 116.306 54.6149 116.474C54.8949 116.642 55.1982 116.726 55.5249 116.726ZM64.7434 118.168C64.3701 118.168 64.0341 118.117 63.7354 118.014C63.4368 117.921 63.1754 117.79 62.9514 117.622C62.7274 117.445 62.5408 117.244 62.3914 117.02L62.2094 118H60.7114V107.92H62.3914V111.98C62.6154 111.635 62.9188 111.35 63.3014 111.126C63.6841 110.893 64.1601 110.776 64.7294 110.776C65.3921 110.776 65.9754 110.939 66.4794 111.266C66.9928 111.583 67.3941 112.022 67.6834 112.582C67.9821 113.133 68.1314 113.767 68.1314 114.486C68.1314 115.186 67.9868 115.816 67.6974 116.376C67.4081 116.936 67.0068 117.375 66.4934 117.692C65.9894 118.009 65.4061 118.168 64.7434 118.168ZM64.3934 116.712C64.7854 116.712 65.1354 116.619 65.4434 116.432C65.7514 116.236 65.9894 115.975 66.1574 115.648C66.3348 115.312 66.4234 114.92 66.4234 114.472C66.4234 114.033 66.3348 113.646 66.1574 113.31C65.9894 112.974 65.7514 112.713 65.4434 112.526C65.1354 112.339 64.7854 112.246 64.3934 112.246C63.9921 112.246 63.6374 112.339 63.3294 112.526C63.0308 112.713 62.7928 112.974 62.6154 113.31C62.4474 113.646 62.3634 114.033 62.3634 114.472C62.3634 114.92 62.4474 115.312 62.6154 115.648C62.7928 115.975 63.0308 116.236 63.3294 116.432C63.6374 116.619 63.9921 116.712 64.3934 116.712ZM73.0662 118.168C72.3662 118.168 71.7502 118.019 71.2182 117.72C70.6862 117.412 70.2709 116.983 69.9722 116.432C69.6736 115.881 69.5242 115.247 69.5242 114.528C69.5242 113.781 69.6689 113.128 69.9582 112.568C70.2569 112.008 70.6722 111.569 71.2042 111.252C71.7456 110.935 72.3709 110.776 73.0802 110.776C73.7709 110.776 74.3729 110.93 74.8862 111.238C75.3996 111.546 75.7962 111.961 76.0762 112.484C76.3562 112.997 76.4962 113.576 76.4962 114.22C76.4962 114.313 76.4962 114.416 76.4962 114.528C76.4962 114.64 76.4869 114.757 76.4682 114.878H70.7282V113.8H74.8022C74.7836 113.287 74.6109 112.885 74.2842 112.596C73.9576 112.297 73.5516 112.148 73.0662 112.148C72.7209 112.148 72.4036 112.227 72.1142 112.386C71.8249 112.545 71.5962 112.783 71.4282 113.1C71.2602 113.408 71.1762 113.8 71.1762 114.276V114.682C71.1762 115.121 71.2556 115.499 71.4142 115.816C71.5822 116.133 71.8062 116.376 72.0862 116.544C72.3756 116.703 72.6976 116.782 73.0522 116.782C73.4442 116.782 73.7662 116.698 74.0182 116.53C74.2796 116.362 74.4709 116.138 74.5922 115.858H76.3002C76.1696 116.297 75.9549 116.693 75.6562 117.048C75.3576 117.393 74.9889 117.669 74.5502 117.874C74.1116 118.07 73.6169 118.168 73.0662 118.168Z" fill="black"/>
<path d="M152 113.5C152.276 113.5 152.5 113.276 152.5 113C152.5 112.724 152.276 112.5 152 112.5V113.5ZM94.1133 113L97 115.887L99.8868 113L97 110.113L94.1133 113ZM152 113V112.5H97V113V113.5H152V113Z" fill="#191919"/>
<g filter="url(#filter0_d_26_5589)">
<rect x="153" y="101" width="24" height="24" rx="12" fill="url(#paint0_radial_26_5589)" shape-rendering="crispEdges"/>
<rect x="152.5" y="100.5" width="25" height="25" rx="12.5" stroke="black" shape-rendering="crispEdges"/>
<path d="M165.611 118.168C164.911 118.168 164.304 118.047 163.791 117.804C163.287 117.552 162.89 117.211 162.601 116.782C162.312 116.343 162.139 115.849 162.083 115.298H163.721C163.805 115.709 164.015 116.054 164.351 116.334C164.687 116.605 165.107 116.74 165.611 116.74C165.994 116.74 166.32 116.651 166.591 116.474C166.862 116.287 167.072 116.04 167.221 115.732C167.38 115.415 167.459 115.06 167.459 114.668C167.459 114.267 167.38 113.917 167.221 113.618C167.072 113.319 166.862 113.091 166.591 112.932C166.32 112.764 166.008 112.68 165.653 112.68C165.214 112.68 164.836 112.783 164.519 112.988C164.211 113.184 163.987 113.431 163.847 113.73H162.223L163.035 108.2H168.439V109.67H164.295L163.847 112.092C164.062 111.859 164.346 111.672 164.701 111.532C165.056 111.383 165.462 111.308 165.919 111.308C166.432 111.308 166.885 111.397 167.277 111.574C167.669 111.751 168 111.994 168.271 112.302C168.542 112.61 168.742 112.969 168.873 113.38C169.013 113.781 169.083 114.206 169.083 114.654C169.083 115.158 168.999 115.625 168.831 116.054C168.663 116.474 168.425 116.843 168.117 117.16C167.818 117.477 167.454 117.725 167.025 117.902C166.605 118.079 166.134 118.168 165.611 118.168Z" fill="white"/>
</g>
<defs>
<filter id="filter0_d_26_5589" x="52" y="0" width="226" height="226" filterUnits="userSpaceOnUse" color-interpolation-filters="sRGB">
<feFlood flood-opacity="0" result="BackgroundImageFix"/>
<feColorMatrix in="SourceAlpha" type="matrix" values="0 0 0 0 0 0 0 0 0 0 0 0 0 0 0 0 0 0 127 0" result="hardAlpha"/>
<feOffset/>
<feGaussianBlur stdDeviation="50"/>
<feComposite in2="hardAlpha" operator="out"/>
<feColorMatrix type="matrix" values="0 0 0 0 0 0 0 0 0 0 0 0 0 0 0 0 0 0 0.25 0"/>
<feBlend mode="normal" in2="BackgroundImageFix" result="effect1_dropShadow_26_5589"/>
<feBlend mode="normal" in="SourceGraphic" in2="effect1_dropShadow_26_5589" result="shape"/>
</filter>
<radialGradient id="paint0_radial_26_5589" cx="0" cy="0" r="1" gradientUnits="userSpaceOnUse" gradientTransform="translate(165 113) rotate(90) scale(12)">
<stop stop-color="#70B4D5"/>
<stop offset="1" stop-color="#014A6E"/>
</radialGradient>
</defs>
</svg>
