<svg width="276" height="226" viewBox="0 0 276 226" fill="none" xmlns="http://www.w3.org/2000/svg">
<g filter="url(#filter0_d_26_5667)">
<rect x="101" y="101" width="24" height="24" rx="12" fill="url(#paint0_radial_26_5667)" shape-rendering="crispEdges"/>
<rect x="100.5" y="100.5" width="25" height="25" rx="12.5" stroke="black" shape-rendering="crispEdges"/>
<path d="M113.69 118.168C112.962 118.168 112.346 118.033 111.842 117.762C111.348 117.491 110.951 117.132 110.652 116.684C110.354 116.227 110.134 115.718 109.994 115.158C109.854 114.598 109.784 114.024 109.784 113.436C109.784 112.344 109.938 111.397 110.246 110.594C110.554 109.782 110.993 109.152 111.562 108.704C112.141 108.256 112.836 108.032 113.648 108.032C114.32 108.032 114.885 108.163 115.342 108.424C115.809 108.676 116.173 109.012 116.434 109.432C116.696 109.852 116.854 110.309 116.91 110.804H115.342C115.258 110.365 115.067 110.029 114.768 109.796C114.479 109.553 114.101 109.432 113.634 109.432C113.214 109.432 112.841 109.563 112.514 109.824C112.188 110.085 111.931 110.477 111.744 111C111.558 111.523 111.45 112.185 111.422 112.988C111.422 113.007 111.422 113.025 111.422 113.044C111.422 113.053 111.422 113.067 111.422 113.086C111.572 112.815 111.772 112.577 112.024 112.372C112.276 112.157 112.566 111.989 112.892 111.868C113.228 111.747 113.588 111.686 113.97 111.686C114.521 111.686 115.03 111.817 115.496 112.078C115.972 112.33 116.355 112.694 116.644 113.17C116.943 113.646 117.092 114.206 117.092 114.85C117.092 115.438 116.952 115.984 116.672 116.488C116.392 116.992 115.996 117.398 115.482 117.706C114.969 118.014 114.372 118.168 113.69 118.168ZM113.592 116.726C113.956 116.726 114.278 116.647 114.558 116.488C114.838 116.329 115.058 116.115 115.216 115.844C115.384 115.573 115.468 115.265 115.468 114.92C115.468 114.556 115.384 114.239 115.216 113.968C115.058 113.697 114.834 113.487 114.544 113.338C114.264 113.189 113.942 113.114 113.578 113.114C113.224 113.114 112.902 113.193 112.612 113.352C112.332 113.501 112.108 113.711 111.94 113.982C111.772 114.253 111.688 114.561 111.688 114.906C111.688 115.261 111.772 115.573 111.94 115.844C112.108 116.115 112.332 116.329 112.612 116.488C112.902 116.647 113.228 116.726 113.592 116.726Z" fill="white"/>
</g>
<path d="M126 112.5C125.724 112.5 125.5 112.724 125.5 113C125.5 113.276 125.724 113.5 126 113.5V112.5ZM198.887 113L196 110.113L193.113 113L196 115.887L198.887 113ZM126 113V113.5H196V113V112.5H126V113Z" fill="#191919"/>
<path d="M203.381 108V98.2H205.061V106.684H209.429V108H203.381ZM213.984 108.168C213.312 108.168 212.705 108.014 212.164 107.706C211.632 107.389 211.212 106.955 210.904 106.404C210.605 105.844 210.456 105.205 210.456 104.486C210.456 103.749 210.61 103.105 210.918 102.554C211.226 101.994 211.646 101.56 212.178 101.252C212.719 100.935 213.326 100.776 213.998 100.776C214.67 100.776 215.272 100.935 215.804 101.252C216.345 101.56 216.765 101.989 217.064 102.54C217.372 103.091 217.526 103.735 217.526 104.472C217.526 105.209 217.372 105.853 217.064 106.404C216.756 106.955 216.331 107.389 215.79 107.706C215.258 108.014 214.656 108.168 213.984 108.168ZM213.984 106.726C214.32 106.726 214.623 106.642 214.894 106.474C215.174 106.306 215.398 106.054 215.566 105.718C215.734 105.382 215.818 104.967 215.818 104.472C215.818 103.977 215.734 103.567 215.566 103.24C215.407 102.904 215.188 102.652 214.908 102.484C214.637 102.316 214.334 102.232 213.998 102.232C213.671 102.232 213.368 102.316 213.088 102.484C212.808 102.652 212.584 102.904 212.416 103.24C212.248 103.567 212.164 103.977 212.164 104.472C212.164 104.967 212.248 105.382 212.416 105.718C212.584 106.054 212.803 106.306 213.074 106.474C213.354 106.642 213.657 106.726 213.984 106.726ZM220.324 108L218.252 100.944H219.918L221.36 106.74L221.052 106.726L222.662 100.944H224.538L226.162 106.726H225.854L227.296 100.944H228.962L226.89 108H225.154L223.432 102.022H223.782L222.06 108H220.324ZM233.221 108.168C232.521 108.168 231.905 108.019 231.373 107.72C230.841 107.412 230.425 106.983 230.127 106.432C229.828 105.881 229.679 105.247 229.679 104.528C229.679 103.781 229.823 103.128 230.113 102.568C230.411 102.008 230.827 101.569 231.359 101.252C231.9 100.935 232.525 100.776 233.235 100.776C233.925 100.776 234.527 100.93 235.041 101.238C235.554 101.546 235.951 101.961 236.231 102.484C236.511 102.997 236.651 103.576 236.651 104.22C236.651 104.313 236.651 104.416 236.651 104.528C236.651 104.64 236.641 104.757 236.623 104.878H230.883V103.8H234.957C234.938 103.287 234.765 102.885 234.439 102.596C234.112 102.297 233.706 102.148 233.221 102.148C232.875 102.148 232.558 102.227 232.269 102.386C231.979 102.545 231.751 102.783 231.583 103.1C231.415 103.408 231.331 103.8 231.331 104.276V104.682C231.331 105.121 231.41 105.499 231.569 105.816C231.737 106.133 231.961 106.376 232.241 106.544C232.53 106.703 232.852 106.782 233.207 106.782C233.599 106.782 233.921 106.698 234.173 106.53C234.434 106.362 234.625 106.138 234.747 105.858H236.455C236.324 106.297 236.109 106.693 235.811 107.048C235.512 107.393 235.143 107.669 234.705 107.874C234.266 108.07 233.771 108.168 233.221 108.168ZM238.202 108V100.944H239.7L239.854 102.26C240.022 101.952 240.232 101.691 240.484 101.476C240.736 101.252 241.03 101.079 241.366 100.958C241.711 100.837 242.089 100.776 242.5 100.776V102.554H241.912C241.632 102.554 241.366 102.591 241.114 102.666C240.862 102.731 240.642 102.843 240.456 103.002C240.278 103.151 240.138 103.361 240.036 103.632C239.933 103.893 239.882 104.225 239.882 104.626V108H238.202ZM247.184 108V97.92H248.864V108H247.184ZM254.029 108.168C253.357 108.168 252.75 108.014 252.209 107.706C251.677 107.389 251.257 106.955 250.949 106.404C250.65 105.844 250.501 105.205 250.501 104.486C250.501 103.749 250.655 103.105 250.963 102.554C251.271 101.994 251.691 101.56 252.223 101.252C252.764 100.935 253.371 100.776 254.043 100.776C254.715 100.776 255.317 100.935 255.849 101.252C256.39 101.56 256.81 101.989 257.109 102.54C257.417 103.091 257.571 103.735 257.571 104.472C257.571 105.209 257.417 105.853 257.109 106.404C256.801 106.955 256.376 107.389 255.835 107.706C255.303 108.014 254.701 108.168 254.029 108.168ZM254.029 106.726C254.365 106.726 254.668 106.642 254.939 106.474C255.219 106.306 255.443 106.054 255.611 105.718C255.779 105.382 255.863 104.967 255.863 104.472C255.863 103.977 255.779 103.567 255.611 103.24C255.452 102.904 255.233 102.652 254.953 102.484C254.682 102.316 254.379 102.232 254.043 102.232C253.716 102.232 253.413 102.316 253.133 102.484C252.853 102.652 252.629 102.904 252.461 103.24C252.293 103.567 252.209 103.977 252.209 104.472C252.209 104.967 252.293 105.382 252.461 105.718C252.629 106.054 252.848 106.306 253.119 106.474C253.399 106.642 253.702 106.726 254.029 106.726ZM263.247 108.168C262.874 108.168 262.538 108.117 262.239 108.014C261.941 107.921 261.679 107.79 261.455 107.622C261.231 107.445 261.045 107.244 260.895 107.02L260.713 108H259.215V97.92H260.895V101.98C261.119 101.635 261.423 101.35 261.805 101.126C262.188 100.893 262.664 100.776 263.233 100.776C263.896 100.776 264.479 100.939 264.983 101.266C265.497 101.583 265.898 102.022 266.187 102.582C266.486 103.133 266.635 103.767 266.635 104.486C266.635 105.186 266.491 105.816 266.201 106.376C265.912 106.936 265.511 107.375 264.997 107.692C264.493 108.009 263.91 108.168 263.247 108.168ZM262.897 106.712C263.289 106.712 263.639 106.619 263.947 106.432C264.255 106.236 264.493 105.975 264.661 105.648C264.839 105.312 264.927 104.92 264.927 104.472C264.927 104.033 264.839 103.646 264.661 103.31C264.493 102.974 264.255 102.713 263.947 102.526C263.639 102.339 263.289 102.246 262.897 102.246C262.496 102.246 262.141 102.339 261.833 102.526C261.535 102.713 261.297 102.974 261.119 103.31C260.951 103.646 260.867 104.033 260.867 104.472C260.867 104.92 260.951 105.312 261.119 105.648C261.297 105.975 261.535 106.236 261.833 106.432C262.141 106.619 262.496 106.712 262.897 106.712ZM271.57 108.168C270.87 108.168 270.254 108.019 269.722 107.72C269.19 107.412 268.775 106.983 268.476 106.432C268.177 105.881 268.028 105.247 268.028 104.528C268.028 103.781 268.173 103.128 268.462 102.568C268.761 102.008 269.176 101.569 269.708 101.252C270.249 100.935 270.875 100.776 271.584 100.776C272.275 100.776 272.877 100.93 273.39 101.238C273.903 101.546 274.3 101.961 274.58 102.484C274.86 102.997 275 103.576 275 104.22C275 104.313 275 104.416 275 104.528C275 104.64 274.991 104.757 274.972 104.878H269.232V103.8H273.306C273.287 103.287 273.115 102.885 272.788 102.596C272.461 102.297 272.055 102.148 271.57 102.148C271.225 102.148 270.907 102.227 270.618 102.386C270.329 102.545 270.1 102.783 269.932 103.1C269.764 103.408 269.68 103.8 269.68 104.276V104.682C269.68 105.121 269.759 105.499 269.918 105.816C270.086 106.133 270.31 106.376 270.59 106.544C270.879 106.703 271.201 106.782 271.556 106.782C271.948 106.782 272.27 106.698 272.522 106.53C272.783 106.362 272.975 106.138 273.096 105.858H274.804C274.673 106.297 274.459 106.693 274.16 107.048C273.861 107.393 273.493 107.669 273.054 107.874C272.615 108.07 272.121 108.168 271.57 108.168ZM223.519 128V118.2H227.355C228.046 118.2 228.62 118.307 229.077 118.522C229.544 118.737 229.894 119.035 230.127 119.418C230.361 119.791 230.477 120.225 230.477 120.72C230.477 121.215 230.37 121.63 230.155 121.966C229.941 122.302 229.656 122.559 229.301 122.736C228.956 122.913 228.578 123.021 228.167 123.058L228.377 122.904C228.816 122.913 229.208 123.03 229.553 123.254C229.908 123.478 230.188 123.772 230.393 124.136C230.599 124.491 230.701 124.887 230.701 125.326C230.701 125.839 230.575 126.301 230.323 126.712C230.081 127.113 229.721 127.431 229.245 127.664C228.769 127.888 228.186 128 227.495 128H223.519ZM225.199 126.628H227.243C227.794 126.628 228.223 126.497 228.531 126.236C228.839 125.975 228.993 125.611 228.993 125.144C228.993 124.677 228.835 124.309 228.517 124.038C228.2 123.758 227.766 123.618 227.215 123.618H225.199V126.628ZM225.199 122.344H227.117C227.659 122.344 228.069 122.223 228.349 121.98C228.629 121.728 228.769 121.383 228.769 120.944C228.769 120.515 228.629 120.179 228.349 119.936C228.069 119.684 227.654 119.558 227.103 119.558H225.199V122.344ZM234.606 128.168C234.028 128.168 233.547 128.07 233.164 127.874C232.782 127.678 232.497 127.417 232.31 127.09C232.124 126.763 232.03 126.409 232.03 126.026C232.03 125.578 232.142 125.191 232.366 124.864C232.6 124.537 232.94 124.285 233.388 124.108C233.836 123.921 234.387 123.828 235.04 123.828H236.818C236.818 123.455 236.767 123.147 236.664 122.904C236.562 122.652 236.403 122.465 236.188 122.344C235.974 122.223 235.698 122.162 235.362 122.162C234.98 122.162 234.653 122.251 234.382 122.428C234.112 122.596 233.944 122.857 233.878 123.212H232.226C232.282 122.708 232.45 122.279 232.73 121.924C233.01 121.56 233.379 121.28 233.836 121.084C234.303 120.879 234.812 120.776 235.362 120.776C236.025 120.776 236.59 120.893 237.056 121.126C237.523 121.35 237.878 121.677 238.12 122.106C238.372 122.526 238.498 123.035 238.498 123.632V128H237.07L236.902 126.866C236.809 127.053 236.688 127.225 236.538 127.384C236.398 127.543 236.235 127.683 236.048 127.804C235.862 127.916 235.647 128.005 235.404 128.07C235.171 128.135 234.905 128.168 234.606 128.168ZM234.984 126.838C235.255 126.838 235.493 126.791 235.698 126.698C235.913 126.595 236.095 126.455 236.244 126.278C236.403 126.091 236.524 125.886 236.608 125.662C236.692 125.438 236.748 125.2 236.776 124.948V124.92H235.222C234.896 124.92 234.625 124.962 234.41 125.046C234.196 125.121 234.042 125.233 233.948 125.382C233.855 125.531 233.808 125.704 233.808 125.9C233.808 126.096 233.855 126.264 233.948 126.404C234.042 126.544 234.177 126.651 234.354 126.726C234.532 126.801 234.742 126.838 234.984 126.838ZM243.639 128.168C242.949 128.168 242.328 128.014 241.777 127.706C241.236 127.389 240.811 126.955 240.503 126.404C240.205 125.844 240.055 125.209 240.055 124.5C240.055 123.763 240.205 123.119 240.503 122.568C240.811 122.008 241.236 121.569 241.777 121.252C242.328 120.935 242.953 120.776 243.653 120.776C244.531 120.776 245.268 121.009 245.865 121.476C246.463 121.933 246.845 122.563 247.013 123.366H245.249C245.156 123.011 244.96 122.731 244.661 122.526C244.372 122.321 244.027 122.218 243.625 122.218C243.28 122.218 242.963 122.307 242.673 122.484C242.393 122.661 242.169 122.918 242.001 123.254C241.843 123.59 241.763 123.996 241.763 124.472C241.763 124.836 241.81 125.158 241.903 125.438C241.997 125.718 242.127 125.956 242.295 126.152C242.473 126.339 242.673 126.483 242.897 126.586C243.121 126.689 243.364 126.74 243.625 126.74C243.896 126.74 244.139 126.698 244.353 126.614C244.577 126.521 244.764 126.385 244.913 126.208C245.072 126.031 245.184 125.821 245.249 125.578H247.013C246.845 126.362 246.463 126.992 245.865 127.468C245.268 127.935 244.526 128.168 243.639 128.168ZM253.183 128L250.061 124.136L252.861 120.944H254.863L251.377 124.822V123.52L255.283 128H253.183ZM248.633 128V117.92H250.313V128H248.633Z" fill="black"/>
<defs>
<filter id="filter0_d_26_5667" x="0" y="0" width="226" height="226" filterUnits="userSpaceOnUse" color-interpolation-filters="sRGB">
<feFlood flood-opacity="0" result="BackgroundImageFix"/>
<feColorMatrix in="SourceAlpha" type="matrix" values="0 0 0 0 0 0 0 0 0 0 0 0 0 0 0 0 0 0 127 0" result="hardAlpha"/>
<feOffset/>
<feGaussianBlur stdDeviation="50"/>
<feComposite in2="hardAlpha" operator="out"/>
<feColorMatrix type="matrix" values="0 0 0 0 0 0 0 0 0 0 0 0 0 0 0 0 0 0 0.25 0"/>
<feBlend mode="normal" in2="BackgroundImageFix" result="effect1_dropShadow_26_5667"/>
<feBlend mode="normal" in="SourceGraphic" in2="effect1_dropShadow_26_5667" result="shape"/>
</filter>
<radialGradient id="paint0_radial_26_5667" cx="0" cy="0" r="1" gradientUnits="userSpaceOnUse" gradientTransform="translate(113 113) rotate(90) scale(12)">
<stop stop-color="#70B4D5"/>
<stop offset="1" stop-color="#014A6E"/>
</radialGradient>
</defs>
</svg>
