<svg width="276" height="226" viewBox="0 0 276 226" fill="none" xmlns="http://www.w3.org/2000/svg">
<g filter="url(#filter0_d_26_5404)">
<rect x="101" y="101" width="24" height="24" rx="12" fill="url(#paint0_radial_26_5404)" shape-rendering="crispEdges"/>
<rect x="100.5" y="100.5" width="25" height="25" rx="12.5" stroke="black" shape-rendering="crispEdges"/>
<path d="M113.236 118V110.118L111.5 110.566V109.264L113.908 108.2H114.958V118H113.236Z" fill="white"/>
</g>
<path d="M126 112.5C125.724 112.5 125.5 112.724 125.5 113C125.5 113.276 125.724 113.5 126 113.5V112.5ZM198.887 113L196 110.113L193.113 113L196 115.887L198.887 113ZM126 113V113.5H196V113V112.5H126V113Z" fill="#191919"/>
<path d="M203.381 118V108.2H205.061V116.684H209.429V118H203.381ZM213.984 118.168C213.312 118.168 212.705 118.014 212.164 117.706C211.632 117.389 211.212 116.955 210.904 116.404C210.605 115.844 210.456 115.205 210.456 114.486C210.456 113.749 210.61 113.105 210.918 112.554C211.226 111.994 211.646 111.56 212.178 111.252C212.719 110.935 213.326 110.776 213.998 110.776C214.67 110.776 215.272 110.935 215.804 111.252C216.345 111.56 216.765 111.989 217.064 112.54C217.372 113.091 217.526 113.735 217.526 114.472C217.526 115.209 217.372 115.853 217.064 116.404C216.756 116.955 216.331 117.389 215.79 117.706C215.258 118.014 214.656 118.168 213.984 118.168ZM213.984 116.726C214.32 116.726 214.623 116.642 214.894 116.474C215.174 116.306 215.398 116.054 215.566 115.718C215.734 115.382 215.818 114.967 215.818 114.472C215.818 113.977 215.734 113.567 215.566 113.24C215.407 112.904 215.188 112.652 214.908 112.484C214.637 112.316 214.334 112.232 213.998 112.232C213.671 112.232 213.368 112.316 213.088 112.484C212.808 112.652 212.584 112.904 212.416 113.24C212.248 113.567 212.164 113.977 212.164 114.472C212.164 114.967 212.248 115.382 212.416 115.718C212.584 116.054 212.803 116.306 213.074 116.474C213.354 116.642 213.657 116.726 213.984 116.726ZM220.324 118L218.252 110.944H219.918L221.36 116.74L221.052 116.726L222.662 110.944H224.538L226.162 116.726H225.854L227.296 110.944H228.962L226.89 118H225.154L223.432 112.022H223.782L222.06 118H220.324ZM233.221 118.168C232.521 118.168 231.905 118.019 231.373 117.72C230.841 117.412 230.425 116.983 230.127 116.432C229.828 115.881 229.679 115.247 229.679 114.528C229.679 113.781 229.823 113.128 230.113 112.568C230.411 112.008 230.827 111.569 231.359 111.252C231.9 110.935 232.525 110.776 233.235 110.776C233.925 110.776 234.527 110.93 235.041 111.238C235.554 111.546 235.951 111.961 236.231 112.484C236.511 112.997 236.651 113.576 236.651 114.22C236.651 114.313 236.651 114.416 236.651 114.528C236.651 114.64 236.641 114.757 236.623 114.878H230.883V113.8H234.957C234.938 113.287 234.765 112.885 234.439 112.596C234.112 112.297 233.706 112.148 233.221 112.148C232.875 112.148 232.558 112.227 232.269 112.386C231.979 112.545 231.751 112.783 231.583 113.1C231.415 113.408 231.331 113.8 231.331 114.276V114.682C231.331 115.121 231.41 115.499 231.569 115.816C231.737 116.133 231.961 116.376 232.241 116.544C232.53 116.703 232.852 116.782 233.207 116.782C233.599 116.782 233.921 116.698 234.173 116.53C234.434 116.362 234.625 116.138 234.747 115.858H236.455C236.324 116.297 236.109 116.693 235.811 117.048C235.512 117.393 235.143 117.669 234.705 117.874C234.266 118.07 233.771 118.168 233.221 118.168ZM238.202 118V110.944H239.7L239.854 112.26C240.022 111.952 240.232 111.691 240.484 111.476C240.736 111.252 241.03 111.079 241.366 110.958C241.711 110.837 242.089 110.776 242.5 110.776V112.554H241.912C241.632 112.554 241.366 112.591 241.114 112.666C240.862 112.731 240.642 112.843 240.456 113.002C240.278 113.151 240.138 113.361 240.036 113.632C239.933 113.893 239.882 114.225 239.882 114.626V118H238.202ZM247.184 118V107.92H248.864V118H247.184ZM254.029 118.168C253.357 118.168 252.75 118.014 252.209 117.706C251.677 117.389 251.257 116.955 250.949 116.404C250.65 115.844 250.501 115.205 250.501 114.486C250.501 113.749 250.655 113.105 250.963 112.554C251.271 111.994 251.691 111.56 252.223 111.252C252.764 110.935 253.371 110.776 254.043 110.776C254.715 110.776 255.317 110.935 255.849 111.252C256.39 111.56 256.81 111.989 257.109 112.54C257.417 113.091 257.571 113.735 257.571 114.472C257.571 115.209 257.417 115.853 257.109 116.404C256.801 116.955 256.376 117.389 255.835 117.706C255.303 118.014 254.701 118.168 254.029 118.168ZM254.029 116.726C254.365 116.726 254.668 116.642 254.939 116.474C255.219 116.306 255.443 116.054 255.611 115.718C255.779 115.382 255.863 114.967 255.863 114.472C255.863 113.977 255.779 113.567 255.611 113.24C255.452 112.904 255.233 112.652 254.953 112.484C254.682 112.316 254.379 112.232 254.043 112.232C253.716 112.232 253.413 112.316 253.133 112.484C252.853 112.652 252.629 112.904 252.461 113.24C252.293 113.567 252.209 113.977 252.209 114.472C252.209 114.967 252.293 115.382 252.461 115.718C252.629 116.054 252.848 116.306 253.119 116.474C253.399 116.642 253.702 116.726 254.029 116.726ZM263.247 118.168C262.874 118.168 262.538 118.117 262.239 118.014C261.941 117.921 261.679 117.79 261.455 117.622C261.231 117.445 261.045 117.244 260.895 117.02L260.713 118H259.215V107.92H260.895V111.98C261.119 111.635 261.423 111.35 261.805 111.126C262.188 110.893 262.664 110.776 263.233 110.776C263.896 110.776 264.479 110.939 264.983 111.266C265.497 111.583 265.898 112.022 266.187 112.582C266.486 113.133 266.635 113.767 266.635 114.486C266.635 115.186 266.491 115.816 266.201 116.376C265.912 116.936 265.511 117.375 264.997 117.692C264.493 118.009 263.91 118.168 263.247 118.168ZM262.897 116.712C263.289 116.712 263.639 116.619 263.947 116.432C264.255 116.236 264.493 115.975 264.661 115.648C264.839 115.312 264.927 114.92 264.927 114.472C264.927 114.033 264.839 113.646 264.661 113.31C264.493 112.974 264.255 112.713 263.947 112.526C263.639 112.339 263.289 112.246 262.897 112.246C262.496 112.246 262.141 112.339 261.833 112.526C261.535 112.713 261.297 112.974 261.119 113.31C260.951 113.646 260.867 114.033 260.867 114.472C260.867 114.92 260.951 115.312 261.119 115.648C261.297 115.975 261.535 116.236 261.833 116.432C262.141 116.619 262.496 116.712 262.897 116.712ZM271.57 118.168C270.87 118.168 270.254 118.019 269.722 117.72C269.19 117.412 268.775 116.983 268.476 116.432C268.177 115.881 268.028 115.247 268.028 114.528C268.028 113.781 268.173 113.128 268.462 112.568C268.761 112.008 269.176 111.569 269.708 111.252C270.249 110.935 270.875 110.776 271.584 110.776C272.275 110.776 272.877 110.93 273.39 111.238C273.903 111.546 274.3 111.961 274.58 112.484C274.86 112.997 275 113.576 275 114.22C275 114.313 275 114.416 275 114.528C275 114.64 274.991 114.757 274.972 114.878H269.232V113.8H273.306C273.287 113.287 273.115 112.885 272.788 112.596C272.461 112.297 272.055 112.148 271.57 112.148C271.225 112.148 270.907 112.227 270.618 112.386C270.329 112.545 270.1 112.783 269.932 113.1C269.764 113.408 269.68 113.8 269.68 114.276V114.682C269.68 115.121 269.759 115.499 269.918 115.816C270.086 116.133 270.31 116.376 270.59 116.544C270.879 116.703 271.201 116.782 271.556 116.782C271.948 116.782 272.27 116.698 272.522 116.53C272.783 116.362 272.975 116.138 273.096 115.858H274.804C274.673 116.297 274.459 116.693 274.16 117.048C273.861 117.393 273.493 117.669 273.054 117.874C272.615 118.07 272.121 118.168 271.57 118.168Z" fill="black"/>
<defs>
<filter id="filter0_d_26_5404" x="0" y="0" width="226" height="226" filterUnits="userSpaceOnUse" color-interpolation-filters="sRGB">
<feFlood flood-opacity="0" result="BackgroundImageFix"/>
<feColorMatrix in="SourceAlpha" type="matrix" values="0 0 0 0 0 0 0 0 0 0 0 0 0 0 0 0 0 0 127 0" result="hardAlpha"/>
<feOffset/>
<feGaussianBlur stdDeviation="50"/>
<feComposite in2="hardAlpha" operator="out"/>
<feColorMatrix type="matrix" values="0 0 0 0 0 0 0 0 0 0 0 0 0 0 0 0 0 0 0.25 0"/>
<feBlend mode="normal" in2="BackgroundImageFix" result="effect1_dropShadow_26_5404"/>
<feBlend mode="normal" in="SourceGraphic" in2="effect1_dropShadow_26_5404" result="shape"/>
</filter>
<radialGradient id="paint0_radial_26_5404" cx="0" cy="0" r="1" gradientUnits="userSpaceOnUse" gradientTransform="translate(113 113) rotate(90) scale(12)">
<stop stop-color="#70B4D5"/>
<stop offset="1" stop-color="#014A6E"/>
</radialGradient>
</defs>
</svg>
