<svg width="278" height="226" viewBox="0 0 278 226" fill="none" xmlns="http://www.w3.org/2000/svg">
<path d="M1.05552 108V98.2H4.56952C5.34419 98.2 5.98352 98.3353 6.48752 98.606C7.00086 98.8673 7.37886 99.222 7.62152 99.67C7.87352 100.109 7.99952 100.608 7.99952 101.168C7.99952 101.691 7.87819 102.176 7.63552 102.624C7.39286 103.072 7.01486 103.431 6.50152 103.702C5.98819 103.973 5.33019 104.108 4.52752 104.108H2.73552V108H1.05552ZM6.16552 108L4.10752 103.674H5.92752L8.08352 108H6.16552ZM2.73552 102.862H4.45752C5.08286 102.862 5.54019 102.713 5.82952 102.414C6.12819 102.106 6.27752 101.705 6.27752 101.21C6.27752 100.725 6.13286 100.337 5.84352 100.048C5.55419 99.7493 5.09219 99.6 4.45752 99.6H2.73552V102.862ZM9.75116 108V100.944H11.4312V108H9.75116ZM10.5912 99.824C10.2832 99.824 10.0265 99.7307 9.82116 99.544C9.62516 99.348 9.52716 99.11 9.52716 98.83C9.52716 98.5407 9.62516 98.3073 9.82116 98.13C10.0265 97.9433 10.2832 97.85 10.5912 97.85C10.8992 97.85 11.1512 97.9433 11.3472 98.13C11.5525 98.3073 11.6552 98.5407 11.6552 98.83C11.6552 99.11 11.5525 99.348 11.3472 99.544C11.1512 99.7307 10.8992 99.824 10.5912 99.824ZM16.3406 111.248C15.6779 111.248 15.0946 111.164 14.5906 110.996C14.0959 110.837 13.7086 110.59 13.4286 110.254C13.1579 109.927 13.0226 109.517 13.0226 109.022C13.0226 108.733 13.0926 108.448 13.2326 108.168C13.3819 107.897 13.6012 107.645 13.8906 107.412C14.1892 107.169 14.5672 106.959 15.0246 106.782L15.7666 107.594C15.3186 107.753 15.0059 107.944 14.8286 108.168C14.6512 108.392 14.5626 108.621 14.5626 108.854C14.5626 109.097 14.6372 109.297 14.7866 109.456C14.9452 109.624 15.1552 109.75 15.4166 109.834C15.6872 109.918 15.9906 109.96 16.3266 109.96C16.6532 109.96 16.9379 109.913 17.1806 109.82C17.4232 109.736 17.6099 109.615 17.7406 109.456C17.8806 109.297 17.9506 109.106 17.9506 108.882C17.9506 108.602 17.8526 108.373 17.6566 108.196C17.4606 108.028 17.0732 107.925 16.4946 107.888C15.9999 107.851 15.5659 107.799 15.1926 107.734C14.8192 107.659 14.4972 107.575 14.2266 107.482C13.9652 107.389 13.7412 107.286 13.5546 107.174C13.3679 107.053 13.2139 106.931 13.0926 106.81V106.488L14.5626 104.948L15.8086 105.354L14.1566 106.964L14.5906 106.152C14.6839 106.217 14.7772 106.278 14.8706 106.334C14.9732 106.39 15.0992 106.441 15.2486 106.488C15.4072 106.525 15.6126 106.563 15.8646 106.6C16.1166 106.637 16.4432 106.675 16.8446 106.712C17.4699 106.759 17.9786 106.871 18.3706 107.048C18.7626 107.225 19.0519 107.463 19.2386 107.762C19.4252 108.061 19.5186 108.42 19.5186 108.84C19.5186 109.251 19.4019 109.638 19.1686 110.002C18.9446 110.366 18.5992 110.665 18.1326 110.898C17.6659 111.131 17.0686 111.248 16.3406 111.248ZM16.3406 105.886C15.7526 105.886 15.2439 105.774 14.8146 105.55C14.3946 105.317 14.0726 105.009 13.8486 104.626C13.6246 104.234 13.5126 103.805 13.5126 103.338C13.5126 102.862 13.6246 102.433 13.8486 102.05C14.0726 101.667 14.3946 101.359 14.8146 101.126C15.2439 100.893 15.7526 100.776 16.3406 100.776C16.9286 100.776 17.4326 100.893 17.8526 101.126C18.2726 101.359 18.5946 101.667 18.8186 102.05C19.0426 102.433 19.1546 102.862 19.1546 103.338C19.1546 103.805 19.0426 104.234 18.8186 104.626C18.5946 105.009 18.2726 105.317 17.8526 105.55C17.4326 105.774 16.9286 105.886 16.3406 105.886ZM16.3406 104.584C16.7419 104.584 17.0639 104.477 17.3066 104.262C17.5492 104.047 17.6706 103.739 17.6706 103.338C17.6706 102.937 17.5492 102.633 17.3066 102.428C17.0639 102.213 16.7419 102.106 16.3406 102.106C15.9392 102.106 15.6126 102.213 15.3606 102.428C15.1086 102.633 14.9826 102.937 14.9826 103.338C14.9826 103.739 15.1086 104.047 15.3606 104.262C15.6126 104.477 15.9392 104.584 16.3406 104.584ZM17.5026 102.176L17.1806 100.944H20.0786V101.994L17.5026 102.176ZM21.562 108V97.92H23.242V102.036C23.4754 101.653 23.7927 101.35 24.194 101.126C24.5954 100.893 25.048 100.776 25.552 100.776C26.1307 100.776 26.6207 100.897 27.022 101.14C27.4234 101.373 27.7267 101.723 27.932 102.19C28.1467 102.647 28.254 103.221 28.254 103.912V108H26.588V104.066C26.588 103.459 26.4574 102.997 26.196 102.68C25.944 102.363 25.5567 102.204 25.034 102.204C24.698 102.204 24.3947 102.288 24.124 102.456C23.8534 102.615 23.6387 102.848 23.48 103.156C23.3214 103.455 23.242 103.823 23.242 104.262V108H21.562ZM33.1046 108C32.6286 108 32.2133 107.925 31.8586 107.776C31.5133 107.627 31.2426 107.379 31.0466 107.034C30.8506 106.689 30.7526 106.222 30.7526 105.634V102.358H29.5486V100.944H30.7526L30.9486 99.082H32.4326V100.944H34.3506V102.358H32.4326V105.634C32.4326 105.989 32.5073 106.236 32.6566 106.376C32.8153 106.507 33.0766 106.572 33.4406 106.572H34.3086V108H33.1046ZM39.4051 108V98.2H42.9331C43.7171 98.2 44.3658 98.3353 44.8791 98.606C45.3925 98.8673 45.7751 99.222 46.0271 99.67C46.2791 100.118 46.4051 100.631 46.4051 101.21C46.4051 101.751 46.2838 102.251 46.0411 102.708C45.7985 103.156 45.4205 103.52 44.9071 103.8C44.3938 104.071 43.7358 104.206 42.9331 104.206H41.0851V108H39.4051ZM41.0851 102.834H42.8351C43.4978 102.834 43.9738 102.689 44.2631 102.4C44.5525 102.101 44.6971 101.705 44.6971 101.21C44.6971 100.697 44.5525 100.295 44.2631 100.006C43.9738 99.7167 43.4978 99.572 42.8351 99.572H41.0851V102.834ZM47.7984 108V100.944H49.2964L49.4504 102.26C49.6184 101.952 49.8284 101.691 50.0804 101.476C50.3324 101.252 50.6264 101.079 50.9624 100.958C51.3077 100.837 51.6857 100.776 52.0964 100.776V102.554H51.5084C51.2284 102.554 50.9624 102.591 50.7104 102.666C50.4584 102.731 50.239 102.843 50.0524 103.002C49.875 103.151 49.735 103.361 49.6324 103.632C49.5297 103.893 49.4784 104.225 49.4784 104.626V108H47.7984ZM53.4328 108V100.944H55.1128V108H53.4328ZM54.2728 99.824C53.9648 99.824 53.7081 99.7307 53.5028 99.544C53.3068 99.348 53.2088 99.11 53.2088 98.83C53.2088 98.5407 53.3068 98.3073 53.5028 98.13C53.7081 97.9433 53.9648 97.85 54.2728 97.85C54.5808 97.85 54.8328 97.9433 55.0288 98.13C55.2341 98.3073 55.3368 98.5407 55.3368 98.83C55.3368 99.11 55.2341 99.348 55.0288 99.544C54.8328 99.7307 54.5808 99.824 54.2728 99.824ZM57.0542 108V100.944H58.5382L58.6782 101.91C58.9022 101.555 59.1962 101.28 59.5602 101.084C59.9335 100.879 60.3582 100.776 60.8342 100.776C61.1889 100.776 61.5062 100.823 61.7862 100.916C62.0755 101.009 62.3275 101.149 62.5422 101.336C62.7662 101.523 62.9482 101.756 63.0882 102.036C63.3495 101.644 63.6902 101.336 64.1102 101.112C64.5302 100.888 64.9875 100.776 65.4822 100.776C66.0702 100.776 66.5695 100.897 66.9802 101.14C67.3909 101.373 67.7035 101.723 67.9182 102.19C68.1329 102.647 68.2402 103.212 68.2402 103.884V108H66.5742V104.052C66.5742 103.455 66.4529 102.997 66.2102 102.68C65.9675 102.363 65.6082 102.204 65.1322 102.204C64.8055 102.204 64.5162 102.283 64.2642 102.442C64.0215 102.601 63.8302 102.834 63.6902 103.142C63.5502 103.441 63.4802 103.809 63.4802 104.248V108H61.8142V104.052C61.8142 103.455 61.6929 102.997 61.4502 102.68C61.2075 102.363 60.8435 102.204 60.3582 102.204C60.0502 102.204 59.7702 102.283 59.5182 102.442C59.2755 102.601 59.0842 102.834 58.9442 103.142C58.8042 103.441 58.7342 103.809 58.7342 104.248V108H57.0542ZM72.3671 108.168C71.7885 108.168 71.3078 108.07 70.9251 107.874C70.5425 107.678 70.2578 107.417 70.0711 107.09C69.8845 106.763 69.7911 106.409 69.7911 106.026C69.7911 105.578 69.9031 105.191 70.1271 104.864C70.3605 104.537 70.7011 104.285 71.1491 104.108C71.5971 103.921 72.1478 103.828 72.8011 103.828H74.5791C74.5791 103.455 74.5278 103.147 74.4251 102.904C74.3225 102.652 74.1638 102.465 73.9491 102.344C73.7345 102.223 73.4591 102.162 73.1231 102.162C72.7405 102.162 72.4138 102.251 72.1431 102.428C71.8725 102.596 71.7045 102.857 71.6391 103.212H69.9871C70.0431 102.708 70.2111 102.279 70.4911 101.924C70.7711 101.56 71.1398 101.28 71.5971 101.084C72.0638 100.879 72.5725 100.776 73.1231 100.776C73.7858 100.776 74.3505 100.893 74.8171 101.126C75.2838 101.35 75.6385 101.677 75.8811 102.106C76.1331 102.526 76.2591 103.035 76.2591 103.632V108H74.8311L74.6631 106.866C74.5698 107.053 74.4485 107.225 74.2991 107.384C74.1591 107.543 73.9958 107.683 73.8091 107.804C73.6225 107.916 73.4078 108.005 73.1651 108.07C72.9318 108.135 72.6658 108.168 72.3671 108.168ZM72.7451 106.838C73.0158 106.838 73.2538 106.791 73.4591 106.698C73.6738 106.595 73.8558 106.455 74.0051 106.278C74.1638 106.091 74.2851 105.886 74.3691 105.662C74.4531 105.438 74.5091 105.2 74.5371 104.948V104.92H72.9831C72.6565 104.92 72.3858 104.962 72.1711 105.046C71.9565 105.121 71.8025 105.233 71.7091 105.382C71.6158 105.531 71.5691 105.704 71.5691 105.9C71.5691 106.096 71.6158 106.264 71.7091 106.404C71.8025 106.544 71.9378 106.651 72.1151 106.726C72.2925 106.801 72.5025 106.838 72.7451 106.838ZM78.0542 108V100.944H79.5522L79.7062 102.26C79.8742 101.952 80.0842 101.691 80.3362 101.476C80.5882 101.252 80.8822 101.079 81.2182 100.958C81.5635 100.837 81.9415 100.776 82.3522 100.776V102.554H81.7642C81.4842 102.554 81.2182 102.591 80.9662 102.666C80.7142 102.731 80.4949 102.843 80.3082 103.002C80.1309 103.151 79.9909 103.361 79.8882 103.632C79.7855 103.893 79.7342 104.225 79.7342 104.626V108H78.0542ZM84.4727 111.08L86.1947 107.216H85.7747L82.9607 100.944H84.7947L86.8947 105.732L88.8827 100.944H90.6607L86.2507 111.08H84.4727ZM14.6317 128V118.2H18.4677C19.1584 118.2 19.7324 118.307 20.1897 118.522C20.6564 118.737 21.0064 119.035 21.2397 119.418C21.473 119.791 21.5897 120.225 21.5897 120.72C21.5897 121.215 21.4824 121.63 21.2677 121.966C21.053 122.302 20.7684 122.559 20.4137 122.736C20.0684 122.913 19.6904 123.021 19.2797 123.058L19.4897 122.904C19.9284 122.913 20.3204 123.03 20.6657 123.254C21.0204 123.478 21.3004 123.772 21.5057 124.136C21.711 124.491 21.8137 124.887 21.8137 125.326C21.8137 125.839 21.6877 126.301 21.4357 126.712C21.193 127.113 20.8337 127.431 20.3577 127.664C19.8817 127.888 19.2984 128 18.6077 128H14.6317ZM16.3117 126.628H18.3557C18.9064 126.628 19.3357 126.497 19.6437 126.236C19.9517 125.975 20.1057 125.611 20.1057 125.144C20.1057 124.677 19.947 124.309 19.6297 124.038C19.3124 123.758 18.8784 123.618 18.3277 123.618H16.3117V126.628ZM16.3117 122.344H18.2297C18.771 122.344 19.1817 122.223 19.4617 121.98C19.7417 121.728 19.8817 121.383 19.8817 120.944C19.8817 120.515 19.7417 120.179 19.4617 119.936C19.1817 119.684 18.7664 119.558 18.2157 119.558H16.3117V122.344ZM23.3667 128V120.944H24.8647L25.0187 122.26C25.1867 121.952 25.3967 121.691 25.6487 121.476C25.9007 121.252 26.1947 121.079 26.5307 120.958C26.876 120.837 27.254 120.776 27.6647 120.776V122.554H27.0767C26.7967 122.554 26.5307 122.591 26.2787 122.666C26.0267 122.731 25.8074 122.843 25.6207 123.002C25.4434 123.151 25.3034 123.361 25.2007 123.632C25.098 123.893 25.0467 124.225 25.0467 124.626V128H23.3667ZM32.0708 128.168C31.3988 128.168 30.7921 128.014 30.2508 127.706C29.7188 127.389 29.2988 126.955 28.9908 126.404C28.6921 125.844 28.5428 125.205 28.5428 124.486C28.5428 123.749 28.6968 123.105 29.0048 122.554C29.3128 121.994 29.7328 121.56 30.2648 121.252C30.8061 120.935 31.4128 120.776 32.0848 120.776C32.7568 120.776 33.3588 120.935 33.8908 121.252C34.4321 121.56 34.8521 121.989 35.1508 122.54C35.4588 123.091 35.6128 123.735 35.6128 124.472C35.6128 125.209 35.4588 125.853 35.1508 126.404C34.8428 126.955 34.4181 127.389 33.8768 127.706C33.3448 128.014 32.7428 128.168 32.0708 128.168ZM32.0708 126.726C32.4068 126.726 32.7101 126.642 32.9808 126.474C33.2608 126.306 33.4848 126.054 33.6528 125.718C33.8208 125.382 33.9048 124.967 33.9048 124.472C33.9048 123.977 33.8208 123.567 33.6528 123.24C33.4941 122.904 33.2748 122.652 32.9948 122.484C32.7241 122.316 32.4208 122.232 32.0848 122.232C31.7581 122.232 31.4548 122.316 31.1748 122.484C30.8948 122.652 30.6708 122.904 30.5028 123.24C30.3348 123.567 30.2508 123.977 30.2508 124.472C30.2508 124.967 30.3348 125.382 30.5028 125.718C30.6708 126.054 30.8901 126.306 31.1608 126.474C31.4408 126.642 31.7441 126.726 32.0708 126.726ZM37.2573 128V120.944H38.7413L38.8673 122.12C39.082 121.709 39.39 121.383 39.7913 121.14C40.1927 120.897 40.6687 120.776 41.2193 120.776C41.7887 120.776 42.274 120.897 42.6753 121.14C43.0767 121.373 43.3847 121.719 43.5993 122.176C43.8233 122.633 43.9353 123.203 43.9353 123.884V128H42.2553V124.038C42.2553 123.45 42.1247 122.997 41.8633 122.68C41.602 122.363 41.2147 122.204 40.7013 122.204C40.3653 122.204 40.062 122.283 39.7913 122.442C39.53 122.601 39.32 122.834 39.1613 123.142C39.012 123.441 38.9373 123.805 38.9373 124.234V128H37.2573ZM49.0526 128.168C48.3619 128.168 47.7412 128.014 47.1906 127.706C46.6492 127.389 46.2246 126.955 45.9166 126.404C45.6179 125.844 45.4686 125.209 45.4686 124.5C45.4686 123.763 45.6179 123.119 45.9166 122.568C46.2246 122.008 46.6492 121.569 47.1906 121.252C47.7412 120.935 48.3666 120.776 49.0666 120.776C49.9439 120.776 50.6812 121.009 51.2786 121.476C51.8759 121.933 52.2586 122.563 52.4266 123.366H50.6626C50.5692 123.011 50.3732 122.731 50.0746 122.526C49.7852 122.321 49.4399 122.218 49.0386 122.218C48.6932 122.218 48.3759 122.307 48.0866 122.484C47.8066 122.661 47.5826 122.918 47.4146 123.254C47.2559 123.59 47.1766 123.996 47.1766 124.472C47.1766 124.836 47.2232 125.158 47.3166 125.438C47.4099 125.718 47.5406 125.956 47.7086 126.152C47.8859 126.339 48.0866 126.483 48.3106 126.586C48.5346 126.689 48.7772 126.74 49.0386 126.74C49.3092 126.74 49.5519 126.698 49.7666 126.614C49.9906 126.521 50.1772 126.385 50.3266 126.208C50.4852 126.031 50.5972 125.821 50.6626 125.578H52.4266C52.2586 126.362 51.8759 126.992 51.2786 127.468C50.6812 127.935 49.9392 128.168 49.0526 128.168ZM54.0464 128V117.92H55.7264V122.036C55.9597 121.653 56.2771 121.35 56.6784 121.126C57.0797 120.893 57.5324 120.776 58.0364 120.776C58.6151 120.776 59.1051 120.897 59.5064 121.14C59.9077 121.373 60.2111 121.723 60.4164 122.19C60.6311 122.647 60.7384 123.221 60.7384 123.912V128H59.0724V124.066C59.0724 123.459 58.9417 122.997 58.6804 122.68C58.4284 122.363 58.0411 122.204 57.5184 122.204C57.1824 122.204 56.8791 122.288 56.6084 122.456C56.3377 122.615 56.1231 122.848 55.9644 123.156C55.8057 123.455 55.7264 123.823 55.7264 124.262V128H54.0464ZM65.141 128.168C64.5716 128.168 64.0816 128.056 63.671 127.832C63.2696 127.599 62.9616 127.253 62.747 126.796C62.5323 126.329 62.425 125.755 62.425 125.074V120.944H64.105V124.906C64.105 125.513 64.231 125.975 64.483 126.292C64.7443 126.6 65.1363 126.754 65.659 126.754C65.995 126.754 66.2936 126.675 66.555 126.516C66.8256 126.357 67.0356 126.129 67.185 125.83C67.3436 125.522 67.423 125.149 67.423 124.71V120.944H69.103V128H67.619L67.493 126.824C67.2783 127.235 66.9656 127.561 66.555 127.804C66.1536 128.047 65.6823 128.168 65.141 128.168ZM73.7862 128.168C73.1608 128.168 72.6148 128.07 72.1482 127.874C71.6908 127.669 71.3268 127.389 71.0562 127.034C70.7948 126.67 70.6408 126.255 70.5942 125.788H72.2742C72.3208 125.984 72.4048 126.166 72.5262 126.334C72.6475 126.493 72.8108 126.619 73.0162 126.712C73.2308 126.805 73.4828 126.852 73.7722 126.852C74.0522 126.852 74.2808 126.815 74.4582 126.74C74.6355 126.656 74.7662 126.549 74.8502 126.418C74.9342 126.287 74.9762 126.147 74.9762 125.998C74.9762 125.774 74.9155 125.601 74.7942 125.48C74.6728 125.359 74.4955 125.265 74.2622 125.2C74.0382 125.125 73.7675 125.055 73.4502 124.99C73.1142 124.925 72.7875 124.845 72.4702 124.752C72.1622 124.649 71.8822 124.523 71.6302 124.374C71.3875 124.225 71.1915 124.033 71.0422 123.8C70.9022 123.567 70.8322 123.282 70.8322 122.946C70.8322 122.535 70.9395 122.167 71.1542 121.84C71.3782 121.513 71.6955 121.257 72.1062 121.07C72.5262 120.874 73.0255 120.776 73.6042 120.776C74.4255 120.776 75.0788 120.967 75.5642 121.35C76.0588 121.723 76.3482 122.251 76.4322 122.932H74.8362C74.7895 122.671 74.6588 122.47 74.4442 122.33C74.2295 122.181 73.9448 122.106 73.5902 122.106C73.2262 122.106 72.9462 122.176 72.7502 122.316C72.5635 122.447 72.4702 122.624 72.4702 122.848C72.4702 122.988 72.5262 123.119 72.6382 123.24C72.7595 123.352 72.9322 123.45 73.1562 123.534C73.3802 123.609 73.6555 123.683 73.9822 123.758C74.5048 123.861 74.9668 123.982 75.3682 124.122C75.7695 124.262 76.0868 124.467 76.3202 124.738C76.5535 125.009 76.6702 125.391 76.6702 125.886C76.6795 126.334 76.5628 126.731 76.3202 127.076C76.0868 127.421 75.7555 127.692 75.3262 127.888C74.8968 128.075 74.3835 128.168 73.7862 128.168Z" fill="black"/>
<path d="M152 113.5C152.276 113.5 152.5 113.276 152.5 113C152.5 112.724 152.276 112.5 152 112.5V113.5ZM94.1133 113L97 115.887L99.8868 113L97 110.113L94.1133 113ZM152 113V112.5H97V113V113.5H152V113Z" fill="#191919"/>
<g filter="url(#filter0_d_26_5502)">
<rect x="153" y="101" width="24" height="24" rx="12" fill="url(#paint0_radial_26_5502)" shape-rendering="crispEdges"/>
<rect x="152.5" y="100.5" width="25" height="25" rx="12.5" stroke="black" shape-rendering="crispEdges"/>
<path d="M165.482 118.168C164.847 118.168 164.268 118.056 163.746 117.832C163.223 117.599 162.803 117.249 162.486 116.782C162.178 116.306 162.014 115.709 161.996 114.99H163.648C163.657 115.317 163.732 115.615 163.872 115.886C164.021 116.147 164.231 116.357 164.502 116.516C164.772 116.665 165.099 116.74 165.482 116.74C165.846 116.74 166.154 116.67 166.406 116.53C166.667 116.39 166.863 116.199 166.994 115.956C167.124 115.713 167.19 115.443 167.19 115.144C167.19 114.78 167.101 114.481 166.924 114.248C166.746 114.005 166.504 113.823 166.196 113.702C165.888 113.581 165.538 113.52 165.146 113.52H164.418V112.134H165.146C165.659 112.134 166.079 112.017 166.406 111.784C166.732 111.541 166.896 111.191 166.896 110.734C166.896 110.351 166.77 110.043 166.518 109.81C166.275 109.577 165.925 109.46 165.468 109.46C164.992 109.46 164.614 109.6 164.334 109.88C164.063 110.16 163.914 110.505 163.886 110.916H162.234C162.262 110.328 162.411 109.819 162.682 109.39C162.962 108.951 163.34 108.615 163.816 108.382C164.292 108.149 164.847 108.032 165.482 108.032C166.144 108.032 166.704 108.149 167.162 108.382C167.619 108.615 167.964 108.928 168.198 109.32C168.44 109.712 168.562 110.141 168.562 110.608C168.562 110.972 168.492 111.303 168.352 111.602C168.212 111.901 168.02 112.153 167.778 112.358C167.544 112.554 167.269 112.699 166.952 112.792C167.316 112.867 167.638 113.011 167.918 113.226C168.207 113.441 168.431 113.716 168.59 114.052C168.758 114.379 168.842 114.761 168.842 115.2C168.842 115.732 168.711 116.227 168.45 116.684C168.198 117.132 167.82 117.491 167.316 117.762C166.821 118.033 166.21 118.168 165.482 118.168Z" fill="white"/>
</g>
<defs>
<filter id="filter0_d_26_5502" x="52" y="0" width="226" height="226" filterUnits="userSpaceOnUse" color-interpolation-filters="sRGB">
<feFlood flood-opacity="0" result="BackgroundImageFix"/>
<feColorMatrix in="SourceAlpha" type="matrix" values="0 0 0 0 0 0 0 0 0 0 0 0 0 0 0 0 0 0 127 0" result="hardAlpha"/>
<feOffset/>
<feGaussianBlur stdDeviation="50"/>
<feComposite in2="hardAlpha" operator="out"/>
<feColorMatrix type="matrix" values="0 0 0 0 0 0 0 0 0 0 0 0 0 0 0 0 0 0 0.25 0"/>
<feBlend mode="normal" in2="BackgroundImageFix" result="effect1_dropShadow_26_5502"/>
<feBlend mode="normal" in="SourceGraphic" in2="effect1_dropShadow_26_5502" result="shape"/>
</filter>
<radialGradient id="paint0_radial_26_5502" cx="0" cy="0" r="1" gradientUnits="userSpaceOnUse" gradientTransform="translate(165 113) rotate(90) scale(12)">
<stop stop-color="#70B4D5"/>
<stop offset="1" stop-color="#014A6E"/>
</radialGradient>
</defs>
</svg>
