<svg width="241" height="208" viewBox="0 0 241 208" fill="none" xmlns="http://www.w3.org/2000/svg">
<g clip-path="url(#clip0_26_5961)">
<path d="M253.281 174.613H-12.2793V174.747H253.281V174.613Z" fill="#EBEBEB"/>
<path d="M226.671 183.194H209.08V183.328H226.671V183.194Z" fill="#EBEBEB"/>
<path d="M163.637 184.646H159.021V184.779H163.637V184.646Z" fill="#EBEBEB"/>
<path d="M208.549 178.245H183.23V178.378H208.549V178.245Z" fill="#EBEBEB"/>
<path d="M28.1609 179.142H15.584V179.275H28.1609V179.142Z" fill="#EBEBEB"/>
<path d="M46.6181 179.142H32.8887V179.275H46.6181V179.142Z" fill="#EBEBEB"/>
<path d="M91.8785 181.392H57.5469V181.525H91.8785V181.392Z" fill="#EBEBEB"/>
<path d="M113.599 150.827H11.045C10.2416 150.825 9.47155 150.504 8.90396 149.933C8.33636 149.362 8.01758 148.588 8.01758 147.781V3.01867C8.02457 2.21655 8.34644 1.44959 8.91328 0.884383C9.48012 0.319178 10.2461 0.00137407 11.045 0H113.599C114.403 0 115.175 0.320847 115.743 0.891958C116.312 1.46307 116.632 2.23766 116.632 3.04533V147.781C116.632 148.589 116.312 149.364 115.743 149.935C115.175 150.506 114.403 150.827 113.599 150.827ZM11.045 0.106667C10.2768 0.10808 9.54054 0.415501 8.99785 0.961454C8.45515 1.50741 8.15036 2.24728 8.15036 3.01867V147.781C8.15036 148.553 8.45515 149.293 8.99785 149.839C9.54054 150.385 10.2768 150.692 11.045 150.693H113.599C114.368 150.692 115.104 150.385 115.648 149.839C116.192 149.293 116.498 148.553 116.499 147.781V3.01867C116.498 2.24679 116.192 1.50693 115.648 0.961129C115.104 0.415328 114.368 0.108077 113.599 0.106667H11.045Z" fill="#EBEBEB"/>
<path d="M228.485 150.827H125.925C125.121 150.825 124.351 150.504 123.782 149.933C123.214 149.362 122.894 148.589 122.893 147.781V3.01867C122.901 2.21606 123.224 1.44911 123.792 0.88405C124.359 0.318991 125.126 0.00135909 125.925 0H228.485C229.283 0.00277573 230.047 0.3212 230.613 0.886255C231.179 1.45131 231.5 2.21747 231.507 3.01867V147.781C231.507 148.587 231.189 149.36 230.622 149.931C230.056 150.502 229.287 150.824 228.485 150.827ZM125.925 0.106667C125.157 0.108077 124.42 0.415328 123.876 0.961129C123.333 1.50693 123.027 2.24679 123.025 3.01867V147.781C123.027 148.553 123.333 149.293 123.876 149.839C124.42 150.385 125.157 150.692 125.925 150.693H228.485C229.253 150.692 229.99 150.385 230.534 149.839C231.077 149.293 231.383 148.553 231.385 147.781V3.01867C231.383 2.24679 231.077 1.50693 230.534 0.961129C229.99 0.415328 229.253 0.108077 228.485 0.106667H125.925Z" fill="#EBEBEB"/>
<path d="M222.161 13.8662H138.26V174.613H222.161V13.8662Z" fill="#EBEBEB"/>
<path d="M215.922 19.1094H144.502V174.613H215.922V19.1094Z" fill="#F5F5F5"/>
<path d="M190.259 32.0049H170.178V37.5782H190.259V32.0049Z" fill="white"/>
<path d="M199.303 87.3711H210.196C210.647 87.3711 211.079 87.5509 211.398 87.871C211.717 88.191 211.896 88.6251 211.896 89.0778C211.896 89.5304 211.717 89.9645 211.398 90.2846C211.079 90.6046 210.647 90.7844 210.196 90.7844H199.303C198.852 90.7844 198.42 90.6046 198.101 90.2846C197.783 89.9645 197.604 89.5304 197.604 89.0778C197.604 88.6251 197.783 88.191 198.101 87.871C198.42 87.5509 198.852 87.3711 199.303 87.3711Z" fill="white"/>
<path d="M80.8991 30.9707H25.0996V76.128H80.8991V30.9707Z" fill="#EBEBEB"/>
<path d="M77.9004 73.1199V33.9785H28.0919V73.1199H77.9004Z" fill="#FAFAFA"/>
<path d="M72.0938 54.0644V52.1924H33.9009V54.0644H72.0938Z" fill="#E0E0E0"/>
<path d="M72.0938 58.3251V56.4531H33.9009V58.3251H72.0938Z" fill="#E0E0E0"/>
<path d="M72.0938 62.581V60.709H33.9009V62.581H72.0938Z" fill="#E0E0E0"/>
<path d="M62.5176 66.8427V64.9707H43.4769V66.8427H62.5176Z" fill="#E0E0E0"/>
<path d="M33.9257 33.9787C33.9257 34.7474 33.7744 35.5085 33.4803 36.2181C33.1863 36.9278 32.7553 37.5721 32.2123 38.1139C31.6693 38.6557 31.025 39.0843 30.3164 39.3751C29.6078 39.6658 28.8489 39.813 28.0834 39.808C27.0272 39.8106 25.9908 39.5209 25.0879 38.9707V30.9707H33.0547C33.6129 31.8748 33.9141 32.915 33.9257 33.9787Z" fill="#EBEBEB"/>
<path d="M80.9029 30.9707V38.9707C79.7925 39.6414 78.4907 39.9197 77.2045 39.7615C75.9184 39.6032 74.722 39.0174 73.8058 38.0974C72.8895 37.1774 72.3062 35.9759 72.1486 34.6845C71.991 33.393 72.2682 32.0857 72.9361 30.9707H80.9029Z" fill="#EBEBEB"/>
<path d="M33.9301 73.1249C33.932 74.183 33.6454 75.2214 33.1016 76.1276H25.1348V68.1276C26.0159 67.5978 27.0212 67.312 28.0482 67.2993C29.0752 67.2866 30.0872 67.5475 30.9811 68.0554C31.8749 68.5633 32.6188 69.3 33.1368 70.1905C33.6549 71.0811 33.9286 72.0936 33.9301 73.1249Z" fill="#EBEBEB"/>
<path d="M80.9003 68.1225V76.1225H72.9335C72.3855 75.2178 72.0969 74.1788 72.0996 73.1199C72.1007 72.0871 72.3745 71.0731 72.8931 70.1813C73.4117 69.2895 74.1566 68.5517 75.0517 68.0432C75.9468 67.5347 76.9602 67.2736 77.9886 67.2866C79.017 67.2996 80.0235 67.5862 80.9056 68.1172L80.9003 68.1225Z" fill="#EBEBEB"/>
<path d="M57.8782 44.3111C58.3157 41.6042 56.4852 39.0537 53.7896 38.6143C51.094 38.1749 48.5541 40.0131 48.1165 42.7199C47.6789 45.4268 49.5095 47.9773 52.2051 48.4167C54.9007 48.8561 57.4406 47.0179 57.8782 44.3111Z" fill="#E0E0E0"/>
<path d="M125.993 110.48H15.584V114.47H125.993V110.48Z" fill="#EBEBEB"/>
<path d="M125.038 114.47H89.166V174.614H125.038V114.47Z" fill="#F5F5F5"/>
<path d="M52.8191 114.47H16.9473V174.614H52.8191V114.47Z" fill="#F5F5F5"/>
<path d="M18.1742 114.47H16.9473V174.614H18.1742V114.47Z" fill="#EBEBEB"/>
<path d="M90.3929 114.47H89.166V174.614H90.3929V114.47Z" fill="#EBEBEB"/>
<path d="M35.7879 100.864H29.1914L29.7225 110.48H35.2568L35.7879 100.864Z" fill="#F0F0F0"/>
<path d="M93.0581 106.31H58.5938V110.48H93.0581V106.31Z" fill="#F0F0F0"/>
<path d="M93.063 106.8H77.1719V109.994H93.063V106.8Z" fill="#FAFAFA"/>
<path d="M120.498 198.699C177.372 198.699 223.477 195.996 223.477 192.661C223.477 189.327 177.372 186.624 120.498 186.624C63.6248 186.624 17.5195 189.327 17.5195 192.661C17.5195 195.996 63.6248 198.699 120.498 198.699Z" fill="#F5F5F5"/>
<path d="M168.675 155.317C177.968 155.317 185.501 147.753 185.501 138.421C185.501 129.09 177.968 121.525 168.675 121.525C159.383 121.525 151.85 129.09 151.85 138.421C151.85 147.753 159.383 155.317 168.675 155.317Z" fill="white"/>
<path d="M168.677 155.525C165.308 155.526 162.014 154.524 159.213 152.645C156.411 150.767 154.227 148.096 152.937 144.971C151.647 141.845 151.309 138.406 151.965 135.088C152.622 131.77 154.244 128.722 156.626 126.329C159.008 123.936 162.043 122.307 165.347 121.646C168.651 120.986 172.076 121.324 175.189 122.619C178.301 123.913 180.962 126.106 182.834 128.918C184.706 131.731 185.705 135.038 185.705 138.421C185.701 142.955 183.905 147.303 180.713 150.509C177.521 153.716 173.192 155.52 168.677 155.525ZM168.677 121.739C165.39 121.739 162.177 122.718 159.444 124.552C156.711 126.385 154.58 128.992 153.323 132.042C152.065 135.091 151.736 138.447 152.378 141.684C153.02 144.922 154.603 147.895 156.928 150.229C159.252 152.562 162.214 154.151 165.438 154.795C168.662 155.438 172.004 155.107 175.04 153.843C178.077 152.579 180.672 150.439 182.498 147.694C184.323 144.949 185.297 141.722 185.296 138.421C185.292 133.997 183.539 129.756 180.423 126.628C177.307 123.5 173.083 121.742 168.677 121.739Z" fill="#0F5E84"/>
<path d="M171.386 128.843H165.969V148H171.386V128.843Z" fill="#0F5E84"/>
<path d="M178.215 141.147V135.707H159.137V141.147H178.215Z" fill="#0F5E84"/>
<path d="M54.6991 10.7045L54.3379 10.3151C56.7965 7.98126 59.9162 6.47174 63.266 5.99512L63.3404 6.52845C60.0986 6.98755 57.0789 8.44683 54.6991 10.7045Z" fill="#0F5E84"/>
<path d="M50.7693 16.5342L50.2754 16.3422C50.8115 14.9835 51.526 13.7029 52.3999 12.5342L52.8248 12.8542C51.9821 13.9852 51.291 15.2224 50.7693 16.5342Z" fill="#0F5E84"/>
<path d="M65.5896 36.9656C73.6385 36.9656 80.1635 30.4135 80.1635 22.331C80.1635 14.2485 73.6385 7.69629 65.5896 7.69629C57.5406 7.69629 51.0156 14.2485 51.0156 22.331C51.0156 30.4135 57.5406 36.9656 65.5896 36.9656Z" fill="#0F5E84"/>
<path d="M74.2931 15.7389C73.7318 15.1538 73.0599 14.6869 72.3168 14.3656C71.5737 14.0442 70.7743 13.8749 69.9652 13.8674C69.1562 13.86 68.3538 14.0146 67.6049 14.3222C66.8561 14.6298 66.1758 15.0842 65.6039 15.6589C65.0325 15.0844 64.3527 14.6301 63.6043 14.3225C62.8559 14.015 62.0539 13.8604 61.2453 13.8679C60.4367 13.8753 59.6377 14.0446 58.895 14.3659C58.1524 14.6872 57.481 15.154 56.9201 15.7389C55.821 16.9328 55.2289 18.51 55.2695 20.1353C55.3102 21.7607 55.9805 23.306 57.1379 24.4429L64.0424 31.3763C64.2496 31.5843 64.4955 31.7493 64.7662 31.8619C65.0368 31.9745 65.3269 32.0324 65.6199 32.0324C65.9128 32.0324 66.2029 31.9745 66.4736 31.8619C66.7442 31.7493 66.9902 31.5843 67.1973 31.3763L74.1019 24.4429C75.2556 23.3025 75.921 21.7552 75.9568 20.1299C75.9925 18.5046 75.3956 16.9294 74.2931 15.7389Z" fill="white"/>
<path d="M65.5866 28.7258C65.4796 28.7221 65.3761 28.686 65.2899 28.6223C65.2036 28.5585 65.1386 28.47 65.1033 28.3685L62.0281 19.3391L60.7428 23.1151C60.7063 23.2201 60.638 23.3109 60.5475 23.375C60.4571 23.4391 60.3489 23.4731 60.2382 23.4725H55.0917C54.9508 23.4725 54.8157 23.4163 54.7161 23.3163C54.6165 23.2163 54.5605 23.0806 54.5605 22.9391C54.5605 22.7977 54.6165 22.662 54.7161 22.562C54.8157 22.462 54.9508 22.4058 55.0917 22.4058H59.8718L61.5395 17.5151C61.5756 17.4103 61.6433 17.3195 61.7333 17.2551C61.8233 17.1908 61.9309 17.1562 62.0414 17.1562C62.1518 17.1562 62.2595 17.1908 62.3495 17.2551C62.4394 17.3195 62.5072 17.4103 62.5433 17.5151L65.6716 26.7045L68.7096 19.5205C68.748 19.4289 68.8111 19.3499 68.8918 19.2925C68.9725 19.235 69.0676 19.2013 69.1664 19.1951C69.2658 19.1894 69.3649 19.2119 69.4522 19.26C69.5395 19.3081 69.6117 19.3799 69.6603 19.4671L71.2643 22.4005H76.1028C76.2437 22.4005 76.3787 22.4567 76.4784 22.5567C76.578 22.6567 76.6339 22.7924 76.6339 22.9338C76.6339 23.0753 76.578 23.2109 76.4784 23.3109C76.3787 23.411 76.2437 23.4671 76.1028 23.4671H70.9562C70.8612 23.4679 70.7677 23.4431 70.6855 23.3953C70.6033 23.3474 70.5354 23.2783 70.4888 23.1951L69.2301 20.9338L66.0752 28.4005C66.0346 28.4969 65.9666 28.5791 65.8797 28.637C65.7928 28.6948 65.6909 28.7257 65.5866 28.7258Z" fill="#0F5E84"/>
<path d="M146.454 173.974H91.0213C90.1181 173.984 89.2226 173.805 88.3919 173.449C87.5612 173.093 86.8133 172.567 86.1959 171.905C85.5785 171.242 85.1051 170.459 84.8056 169.603C84.5062 168.747 84.3874 167.838 84.4567 166.934L93.4167 33.6003C93.5732 31.6961 94.4291 29.9183 95.818 28.6124C97.2068 27.3064 99.0296 26.5655 100.932 26.5336H156.376C157.281 26.5232 158.179 26.7027 159.012 27.0605C159.845 27.4183 160.594 27.9466 161.212 28.6117C161.829 29.2768 162.302 30.0639 162.6 30.9229C162.898 31.7819 163.014 32.6938 162.94 33.6003L153.964 166.934C153.803 168.833 152.945 170.604 151.558 171.904C150.171 173.205 148.352 173.942 146.454 173.974Z" fill="#263238"/>
<path d="M158.743 80.8323H157.346C157.093 80.8353 156.843 80.7854 156.61 80.6855C156.377 80.5856 156.168 80.4381 155.996 80.2523C155.823 80.0665 155.691 79.8466 155.608 79.6067C155.525 79.3668 155.493 79.1121 155.514 78.8589L157.229 53.3709C157.269 52.8379 157.507 52.3393 157.896 51.9739C158.284 51.6084 158.795 51.4028 159.327 51.3976H160.724C160.977 51.3945 161.228 51.4445 161.46 51.5444C161.693 51.6443 161.902 51.7918 162.075 51.9776C162.247 52.1633 162.379 52.3832 162.462 52.6232C162.545 52.8631 162.577 53.1178 162.557 53.3709L160.841 78.8589C160.801 79.392 160.563 79.8906 160.175 80.256C159.786 80.6214 159.275 80.8271 158.743 80.8323Z" fill="#263238"/>
<path d="M92.6094 63.8292H91.2178C91.0119 63.8319 90.8077 63.7917 90.6181 63.7111C90.4285 63.6304 90.2576 63.5111 90.1163 63.3607C89.975 63.2103 89.8664 63.0321 89.7972 62.8373C89.7281 62.6425 89.7 62.4354 89.7147 62.2292L90.3362 53.0239C90.3754 52.5917 90.5722 52.1893 90.8888 51.894C91.2055 51.5987 91.6196 51.4313 92.0517 51.4239H93.4485C93.6537 51.4226 93.857 51.464 94.0456 51.5452C94.2342 51.6265 94.4041 51.7459 94.5447 51.896C94.6853 52.0462 94.7935 52.2239 94.8626 52.4179C94.9317 52.612 94.9602 52.8182 94.9463 53.0239L94.3249 62.2292C94.2868 62.6618 94.0903 63.0648 93.7734 63.3604C93.4566 63.6559 93.0418 63.8229 92.6094 63.8292Z" fill="#0F5E84"/>
<path d="M91.5039 80.2667H90.107C89.9016 80.2687 89.6979 80.2279 89.509 80.1469C89.32 80.066 89.1498 79.9465 89.009 79.7962C88.8683 79.6459 88.7601 79.4679 88.6913 79.2735C88.6225 79.0791 88.5946 78.8725 88.6093 78.6667L89.2307 69.4614C89.2699 69.0292 89.4667 68.6268 89.7834 68.3315C90.1 68.0362 90.5141 67.8688 90.9462 67.8614H92.3537C92.5589 67.8601 92.7622 67.9015 92.9508 67.9827C93.1394 68.0639 93.3093 68.1834 93.4498 68.3335C93.5904 68.4837 93.6986 68.6614 93.7677 68.8554C93.8368 69.0495 93.8653 69.2557 93.8514 69.4614L93.23 78.6667C93.1918 79.1011 92.9938 79.5056 92.6746 79.8014C92.3555 80.0972 91.9382 80.2631 91.5039 80.2667Z" fill="#0F5E84"/>
<path d="M145.279 173.974H89.8456C88.9423 173.984 88.0469 173.805 87.2161 173.449C86.3854 173.093 85.6376 172.567 85.0202 171.905C84.4027 171.243 83.9293 170.459 83.6299 169.603C83.3304 168.747 83.2116 167.838 83.2809 166.934L92.2462 33.6004C92.4082 31.6956 93.27 29.9193 94.664 28.6171C96.058 27.3149 97.8844 26.5799 99.7881 26.5551H155.2C156.104 26.545 157 26.7238 157.831 27.0804C158.662 27.4369 159.41 27.9633 160.027 28.626C160.645 29.2887 161.118 30.0732 161.417 30.9296C161.716 31.786 161.835 32.6956 161.765 33.6004L152.794 166.934C152.632 168.834 151.774 170.606 150.386 171.906C148.997 173.207 147.177 173.944 145.279 173.974Z" fill="#0F5E84"/>
<path opacity="0.3" d="M83.8672 165.44L92.62 35.3281H161.166L152.414 165.44H83.8672Z" fill="white"/>
<path opacity="0.1" d="M110.926 165.44L135.389 35.3281H150.744L126.28 165.44H110.926Z" fill="white"/>
<path opacity="0.1" d="M99.3262 165.44L123.79 35.3281H131.57L107.107 165.44H99.3262Z" fill="white"/>
<path d="M120.578 29.8243H133.946C134.057 29.8224 134.168 29.8441 134.271 29.8879C134.374 29.9317 134.466 29.9967 134.542 30.0786C134.618 30.1606 134.676 30.2577 134.713 30.3636C134.749 30.4696 134.763 30.582 134.753 30.6937C134.735 30.9287 134.63 31.1484 134.459 31.31C134.288 31.4717 134.064 31.5638 133.829 31.5683H120.461C120.349 31.5695 120.238 31.5472 120.135 31.5028C120.033 31.4583 119.94 31.3929 119.864 31.3105C119.788 31.2281 119.73 31.1307 119.694 31.0245C119.658 30.9182 119.644 30.8056 119.653 30.6937C119.672 30.4592 119.777 30.2401 119.948 30.0793C120.119 29.9185 120.343 29.8276 120.578 29.8243Z" fill="white"/>
<path d="M117.795 186.8L113.111 187.248L111.422 176.395L116.106 175.941L117.795 186.8Z" fill="#FFB573"/>
<path d="M112.574 184.949L117.481 183.419C117.566 183.389 117.659 183.394 117.74 183.432C117.821 183.469 117.885 183.537 117.917 183.621L119.51 187.531C119.55 187.635 119.567 187.747 119.562 187.859C119.556 187.971 119.528 188.081 119.478 188.181C119.428 188.281 119.358 188.37 119.272 188.442C119.186 188.513 119.086 188.566 118.979 188.597C117.205 189.131 115.516 189.253 113.376 190.197C110.874 191.264 109.828 192.693 107.135 192.693C105.207 192.693 104.772 190.917 105.59 190.672C109.307 189.541 108.819 188.613 111.517 185.696C111.798 185.358 112.162 185.1 112.574 184.949Z" fill="#263238"/>
<path opacity="0.2" d="M111.422 176.395L112.293 181.995L116.983 181.541L116.112 175.941L111.422 176.395Z" fill="black"/>
<path d="M114.81 39.2539C108.665 38.5286 102.552 39.0139 96.4172 40.2086C95.395 40.4078 94.4625 40.9288 93.7549 41.6959C93.0473 42.4631 92.6013 43.4365 92.4816 44.4753C91.8177 50.3739 91.0582 63.5953 94.0219 83.3179L119.133 81.1846C119.181 77.6059 116.648 61.3019 118.74 44.3846C118.826 43.7874 118.791 43.179 118.639 42.5954C118.487 42.0117 118.22 41.4647 117.853 40.9864C117.487 40.5082 117.029 40.1085 116.506 39.8109C115.983 39.5134 115.407 39.324 114.81 39.2539Z" fill="white"/>
<path d="M100.189 44.3092L101.087 46.1118C101.129 46.2028 101.196 46.28 101.279 46.3347C101.363 46.3895 101.46 46.4194 101.56 46.4212L102.532 46.4745C102.705 46.4821 102.876 46.4293 103.015 46.3252L104.688 45.0718L102.622 43.5625L100.189 44.3092Z" fill="#263238"/>
<path d="M102.558 45.9579C102.204 45.7931 101.803 45.7609 101.427 45.8672C100.636 48.6672 99.77 56.7045 99.6797 60.2672C102.08 67.2912 102.866 68.0005 102.866 68.0005L104.083 59.5472C104.083 59.5472 102.718 50.9019 102.558 45.9579Z" fill="#263238"/>
<path d="M109.491 27.0938C108.918 30.5711 108.429 36.9231 110.915 39.1684C109.093 41.0884 106.708 43.3124 102.619 43.5631C98.529 43.8137 99.161 40.9711 100.197 39.4511C104.015 38.4271 103.83 35.5684 103.081 32.8964L109.491 27.0938Z" fill="#FFB573"/>
<path d="M111.958 38.8638C111.669 38.7384 111.368 38.6402 111.061 38.5705C110.985 38.5505 110.906 38.5558 110.834 38.5857C110.762 38.6156 110.701 38.6683 110.662 38.7358C110.269 39.4078 109.069 42.4105 102.621 43.5625C103.683 44.1918 105.091 46.1438 105.696 47.0825C107.63 46.0745 112.659 43.0611 112.181 39.1625C112.172 39.0981 112.146 39.0371 112.107 38.985C112.068 38.9329 112.017 38.8912 111.958 38.8638Z" fill="#F5F5F5"/>
<path d="M100.233 39.6105C100.247 39.5498 100.245 39.4867 100.228 39.4268C100.211 39.367 100.18 39.3123 100.136 39.2678C100.093 39.2233 100.039 39.1904 99.9802 39.172C99.921 39.1536 99.8582 39.1503 99.7975 39.1625C99.5742 39.206 99.3542 39.2648 99.1389 39.3385C99.0891 39.358 99.0425 39.385 99.0008 39.4185C98.5068 39.8772 95.8141 43.7812 98.3369 46.9385C98.868 46.0798 100.7 44.1332 102.618 43.5625C100.801 42.7412 99.909 41.2105 100.233 39.6105Z" fill="#F5F5F5"/>
<path opacity="0.2" d="M106.88 29.4619L103.088 32.8966C103.271 33.5169 103.399 34.1523 103.47 34.7952C104.936 34.5446 106.907 32.8752 107.013 31.3286C107.085 30.7035 107.04 30.0704 106.88 29.4619Z" fill="black"/>
<path d="M101.811 16.5815C98.5393 17.8669 98.3268 20.5655 98.6243 23.5149C98.9217 26.4642 102.119 24.5122 102.831 22.6669C103.542 20.8215 106.341 14.8002 101.811 16.5815Z" fill="#263238"/>
<path d="M112.25 22.4646C111.341 27.11 111.039 29.8673 108.394 32.006C104.405 35.206 99.0034 32.4433 98.5254 27.654C98.0952 23.3393 99.6514 16.454 104.416 15.11C105.455 14.8028 106.555 14.7731 107.609 15.024C108.663 15.2748 109.634 15.7974 110.425 16.5402C111.216 17.2829 111.8 18.2201 112.12 19.2591C112.44 20.2981 112.485 21.403 112.25 22.4646Z" fill="#FFB573"/>
<path d="M112.056 26.3095C108.163 26.5175 108.986 24.2989 109.693 23.0242C110.399 21.7495 108.96 19.6429 109.9 18.5495C108.222 19.2215 106.453 18.6669 104.206 17.0989C102.464 15.8775 100.281 20.7575 98.1568 18.3095C96.1492 16.0002 98.0134 12.5175 102.836 11.9575C107.659 11.3975 108.535 14.8215 111.7 14.5175C114.866 14.2135 113.766 16.8322 113.145 17.3655C115.801 17.5415 117.251 20.0909 112.056 26.3095Z" fill="#263238"/>
<path d="M112.537 17.6912C113.146 17.3557 113.655 16.8629 114.011 16.2637C114.367 15.6645 114.556 14.9808 114.561 14.2832C115.612 16.1339 115.501 18.2352 112.537 17.6912Z" fill="#263238"/>
<path d="M102.446 27.4238C102.869 27.4973 103.303 27.4842 103.721 27.3852C104.139 27.2862 104.533 27.1034 104.878 26.8478C104.889 26.8378 104.897 26.8258 104.903 26.8125C104.909 26.7992 104.911 26.7849 104.911 26.7704C104.911 26.756 104.909 26.7416 104.903 26.7283C104.897 26.7151 104.889 26.7031 104.878 26.6931C104.858 26.6732 104.83 26.6621 104.801 26.6621C104.773 26.6621 104.745 26.6732 104.724 26.6931C104.337 26.9688 103.891 27.1504 103.422 27.2235C102.953 27.2966 102.473 27.2593 102.021 27.1144C101.992 27.1072 101.962 27.1108 101.935 27.1246C101.909 27.1383 101.888 27.1613 101.878 27.1891C101.869 27.2174 101.872 27.2478 101.886 27.2738C101.9 27.2997 101.924 27.3191 101.952 27.3278C102.113 27.3745 102.279 27.4067 102.446 27.4238Z" fill="#263238"/>
<path d="M113.189 27.7331C112.461 28.6742 111.395 29.2909 110.22 29.4505C108.674 29.6531 108.159 28.2078 108.807 26.8585C109.396 25.6425 110.931 24.0745 112.355 24.4958C113.778 24.9171 114.081 26.5598 113.189 27.7331Z" fill="#FFB573"/>
<path d="M111.654 128.731C111.84 114.806 113.614 81.6377 113.614 81.6377L94.0371 83.2964C94.0371 83.2964 97.9302 117.478 100.278 131.686C102.721 146.454 110.215 181.051 110.215 181.051L118.182 180.368C118.182 180.368 115.271 139.499 111.654 128.731Z" fill="#263238"/>
<path d="M109.735 181.27L119.184 180.465L118.812 177.403L108.965 178.065L109.735 181.27Z" fill="#0F5E84"/>
<path d="M105.271 22.7411C105.223 23.1198 104.978 23.4078 104.739 23.3811C104.5 23.3545 104.336 23.0238 104.389 22.6398C104.442 22.2558 104.681 21.9731 104.92 21.9998C105.159 22.0265 105.324 22.3625 105.271 22.7411Z" fill="#263238"/>
<path d="M100.935 22.3998C100.887 22.7838 100.643 23.0665 100.404 23.0398C100.164 23.0132 99.9998 22.6825 100.053 22.3038C100.106 21.9252 100.345 21.6372 100.584 21.6638C100.823 21.6905 100.988 21.9998 100.935 22.3998Z" fill="#263238"/>
<path d="M102.157 22.8486C101.517 23.8356 100.749 24.7324 99.873 25.5153C100.436 26.1073 101.599 25.9473 101.599 25.9473L102.157 22.8486Z" fill="#ED893E"/>
<path opacity="0.4" d="M98.1925 22.4961C98.1129 23.1041 98.7236 23.6108 99.5681 23.7174C100.413 23.8241 101.193 23.3601 101.268 22.7521" fill="#0F5E84"/>
<path opacity="0.4" d="M103.216 23.0615C103.099 23.6642 103.689 24.2082 104.517 24.3682C105.346 24.5282 106.158 24.1015 106.27 23.5042" fill="#0F5E84"/>
<path d="M104.845 24.534C104.75 24.5393 104.654 24.5393 104.558 24.534C104.15 24.4849 103.767 24.3119 103.459 24.038C103.325 23.9227 103.22 23.7769 103.153 23.6127C103.087 23.4484 103.06 23.2705 103.076 23.094C102.807 22.9761 102.52 22.904 102.227 22.8806C101.932 22.8068 101.624 22.8068 101.329 22.8806C101.255 23.5313 100.447 23.9793 99.5445 23.8673C99.1362 23.8225 98.7519 23.651 98.4451 23.3766C98.3116 23.2609 98.2073 23.1149 98.1408 22.9508C98.0743 22.7867 98.0476 22.6091 98.0627 22.4326L98.3177 22.4646C98.3069 22.601 98.3288 22.738 98.3815 22.8641C98.4341 22.9903 98.516 23.102 98.6204 23.19C98.8879 23.4264 99.222 23.5736 99.5764 23.6113C100.341 23.7126 101.021 23.3553 101.09 22.822C101.127 22.5233 101.743 22.5446 102.253 22.6086C102.763 22.6726 103.369 22.8166 103.315 23.11C103.304 23.2464 103.326 23.3835 103.379 23.5097C103.431 23.636 103.514 23.7476 103.618 23.8353C103.889 24.0686 104.222 24.2172 104.576 24.2627C104.93 24.3082 105.289 24.2486 105.61 24.0913C105.734 24.0335 105.842 23.9466 105.925 23.8379C106.008 23.7293 106.064 23.6022 106.088 23.4673V23.3393L112.642 24.1873L112.61 24.4433L106.3 23.6273C106.255 23.7757 106.179 23.9133 106.079 24.0316C105.978 24.1498 105.855 24.2464 105.716 24.3153C105.448 24.4579 105.149 24.533 104.845 24.534Z" fill="#263238"/>
<path d="M106.938 21.0671C106.976 21.0672 107.013 21.056 107.045 21.0351C107.096 21.0049 107.134 20.9556 107.15 20.8978C107.166 20.84 107.159 20.7782 107.13 20.7257C106.965 20.4155 106.727 20.151 106.436 19.9556C106.145 19.7602 105.81 19.64 105.462 19.6057C105.402 19.6028 105.344 19.6235 105.299 19.6634C105.254 19.7033 105.227 19.7592 105.223 19.8191C105.22 19.8776 105.24 19.935 105.279 19.9789C105.318 20.0227 105.372 20.0496 105.43 20.0537C105.706 20.0862 105.969 20.1858 106.198 20.3438C106.427 20.5018 106.613 20.7135 106.742 20.9604C106.762 20.9944 106.791 21.0222 106.826 21.041C106.86 21.0598 106.899 21.0688 106.938 21.0671Z" fill="#263238"/>
<path d="M99.5334 20.4642C99.5702 20.4678 99.6073 20.4624 99.6415 20.4484C99.6757 20.4345 99.7061 20.4125 99.7299 20.3842C99.9017 20.1583 100.124 19.976 100.378 19.8519C100.633 19.7278 100.913 19.6653 101.196 19.6695C101.225 19.6724 101.255 19.6695 101.283 19.6609C101.311 19.6523 101.337 19.6381 101.36 19.6193C101.383 19.6004 101.402 19.5773 101.415 19.5511C101.429 19.5249 101.437 19.4963 101.44 19.4668C101.444 19.4381 101.442 19.4089 101.434 19.3809C101.427 19.353 101.413 19.3268 101.396 19.304C101.378 19.2811 101.356 19.2621 101.331 19.2479C101.305 19.2338 101.278 19.2248 101.249 19.2215C100.892 19.2121 100.538 19.2868 100.215 19.4397C99.8925 19.5925 99.6098 19.8192 99.39 20.1015C99.3522 20.1468 99.3337 20.2054 99.3387 20.2643C99.3437 20.3233 99.3717 20.3779 99.4166 20.4162C99.4512 20.4412 99.4913 20.4576 99.5334 20.4642Z" fill="#263238"/>
<path d="M127.965 126.486C123.902 105.515 122.988 89.115 119.132 81.1523L100.166 83.2857C100.166 83.2857 111.463 114.534 116.981 127.872C122.712 141.739 134.025 165.43 134.025 165.43H143.5C143.5 165.43 134.657 136.038 127.965 126.486Z" fill="#263238"/>
<path d="M67.8471 47.0984L65.797 45.7971C65.4642 45.5818 65.0674 45.4891 64.6741 45.5348C64.2809 45.5805 63.9156 45.7618 63.6406 46.0477L62.2491 47.5198C62.0992 47.6786 61.9834 47.8667 61.9088 48.0723C61.8342 48.2779 61.8024 48.4967 61.8153 48.7151C61.8283 48.9336 61.8857 49.147 61.9841 49.3423C62.0824 49.5376 62.2196 49.7105 62.3872 49.8504L63.3804 50.7038C64.2443 51.4389 65.2521 51.9839 66.3387 52.3038L69.3396 53.1944L71.31 51.0611C71.9102 48.8371 67.8471 47.0984 67.8471 47.0984Z" fill="#FFB573"/>
<path d="M98.1944 46.1012C97.4509 47.9252 96.7232 49.6212 95.9319 51.3545C95.1405 53.0878 94.3385 54.7998 93.4515 56.5012C92.5646 58.2025 91.6192 59.8932 90.5463 61.5892C90.0152 62.4318 89.4256 63.2745 88.7564 64.1225C88.037 65.0575 87.2177 65.9106 86.3133 66.6665C85.7161 67.1566 85.0571 67.5655 84.3534 67.8825C84.1304 67.9678 83.9232 68.0532 83.6789 68.1278L83.3071 68.2292C83.1201 68.2753 82.9302 68.3091 82.7388 68.3305C82.0914 68.4037 81.436 68.3567 80.8055 68.1918C80.0173 67.9703 79.2682 67.6266 78.5855 67.1732C78.0741 66.8527 77.586 66.4963 77.1249 66.1065C75.5921 64.7627 74.1792 63.2868 72.9025 61.6958C71.665 60.2025 70.4965 58.7038 69.3758 57.1732C68.2552 55.6425 67.177 54.1385 66.0723 52.5332L71.9465 48.7252C73.8002 51.73 75.8513 54.6075 78.0862 57.3385C79.1136 58.6035 80.2453 59.7792 81.4694 60.8532C81.7066 61.048 81.9568 61.2262 82.2183 61.3865C82.4148 61.5198 82.6113 61.5732 82.4733 61.5252C82.2865 61.4736 82.0909 61.4627 81.8997 61.4932C81.8224 61.5003 81.7459 61.5146 81.6713 61.5358H81.6288C81.6022 61.5358 81.6022 61.5358 81.5969 61.5358C81.7177 61.4566 81.833 61.3693 81.9421 61.2745C82.4269 60.8326 82.8664 60.3431 83.254 59.8132C83.7055 59.2052 84.1569 58.5225 84.5871 57.8132C85.4665 56.3383 86.2678 54.818 86.9878 53.2585C87.7313 51.6585 88.4484 50.0585 89.1123 48.3945C89.7762 46.7305 90.4082 45.0398 90.9446 43.4238L98.1944 46.1012Z" fill="#0F5E84"/>
<g opacity="0.6">
<path d="M98.1983 46.1012C97.4548 47.9252 96.7271 49.6212 95.9358 51.3545C95.1444 53.0878 94.3424 54.7998 93.4554 56.5012C92.5685 58.2025 91.6231 59.8932 90.5502 61.5892C90.0191 62.4318 89.4295 63.2745 88.7603 64.1225C88.0409 65.0575 87.2216 65.9106 86.3172 66.6665C85.72 67.1566 85.061 67.5655 84.3573 67.8825C84.1343 67.9678 83.9271 68.0532 83.6828 68.1278L83.311 68.2292C83.124 68.2753 82.9341 68.3091 82.7427 68.3305C82.0953 68.4037 81.4399 68.3567 80.8094 68.1918C80.0212 67.9703 79.2721 67.6266 78.5894 67.1732C78.078 66.8527 77.5899 66.4963 77.1288 66.1065C75.596 64.7627 74.1831 63.2868 72.9064 61.6958C71.6689 60.2025 70.5004 58.7038 69.3797 57.1732C68.2591 55.6425 67.1809 54.1385 66.0762 52.5332L71.9504 48.7252C73.8041 51.73 75.8552 54.6075 78.0901 57.3385C79.1175 58.6035 80.2492 59.7792 81.4733 60.8532C81.7105 61.048 81.9607 61.2262 82.2222 61.3865C82.4187 61.5198 82.6153 61.5732 82.4772 61.5252C82.2904 61.4736 82.0949 61.4627 81.9036 61.4932C81.8263 61.5003 81.7498 61.5146 81.6752 61.5358H81.6327C81.6061 61.5358 81.6061 61.5358 81.6008 61.5358C81.7216 61.4566 81.8369 61.3693 81.946 61.2745C82.4309 60.8326 82.8703 60.3431 83.2579 59.8132C83.7094 59.2052 84.1608 58.5225 84.591 57.8132C85.4704 56.3383 86.2717 54.818 86.9917 53.2585C87.7353 51.6585 88.4523 50.0585 89.1162 48.3945C89.7801 46.7305 90.4121 45.0398 90.9485 43.4238L98.1983 46.1012Z" fill="white"/>
</g>
<path d="M112.099 37.9153C110.108 41.6487 103.017 55.8727 102.157 64.6514C99.0179 56.6514 99.7031 38.9553 99.7031 38.9553C97.466 39.1743 95.2716 39.7131 93.1862 40.5553C92.5142 40.8326 91.9317 41.2913 91.5033 41.8806C91.0749 42.4699 90.8173 43.1668 90.759 43.894C90.1477 53.0504 90.4359 62.245 91.6194 71.3447C93.8236 88.5714 95.8684 115.361 95.8684 115.361C95.8684 115.361 113.422 114.625 126.965 111.755C125.314 98.5874 119.663 76.518 119.609 70.6087C119.546 63.0033 119.721 48.134 119.96 41.926C120 41.0495 119.727 40.1876 119.189 39.496C118.651 38.8044 117.885 38.3289 117.028 38.1553C115.404 37.853 113.746 37.7723 112.099 37.9153Z" fill="#0F5E84"/>
<path opacity="0.7" d="M112.099 37.9154C110.108 41.6487 103.017 55.8727 102.157 64.6514C99.0179 56.6514 99.7031 38.9554 99.7031 38.9554C97.466 39.1743 95.2716 39.7131 93.1862 40.5554C92.5142 40.8326 91.9317 41.2913 91.5033 41.8806C91.0749 42.4699 90.8173 43.1668 90.759 43.894C90.1477 53.0504 90.4359 62.245 91.6194 71.3447C93.8236 88.5714 95.8684 115.361 95.8684 115.361C95.8684 115.361 113.422 114.625 126.965 111.755C125.314 98.5874 119.663 76.518 119.609 70.6087C119.546 63.0034 119.721 48.1287 119.96 41.9207C120.01 41.0709 119.76 40.2305 119.254 39.5476C118.748 38.8647 118.018 38.383 117.193 38.1874C115.516 37.8574 113.802 37.7658 112.099 37.9154Z" fill="white"/>
<path d="M107.964 112.502C104.916 95.611 102.499 70.827 102.303 67.8457H102.574C102.77 70.827 105.192 95.579 108.235 112.47L107.964 112.502Z" fill="white"/>
<path d="M106.443 82.4534H90.254C89.9271 82.4386 89.6138 82.3178 89.361 82.1092C89.1082 81.9005 88.9296 81.6152 88.8518 81.2961L83.4397 56.0321C83.4001 55.8941 83.3936 55.7487 83.4209 55.6078C83.4481 55.4669 83.5083 55.3345 83.5964 55.2215C83.6846 55.1086 83.7982 55.0182 83.9279 54.9579C84.0576 54.8976 84.1998 54.8691 84.3426 54.8747H100.526C100.854 54.8884 101.168 55.0087 101.422 55.2174C101.676 55.4261 101.855 55.712 101.933 56.0321L107.345 81.2961C107.385 81.434 107.392 81.5794 107.364 81.7203C107.337 81.8612 107.277 81.9936 107.189 82.1066C107.101 82.2196 106.987 82.3099 106.857 82.3702C106.727 82.4305 106.585 82.459 106.443 82.4534Z" fill="white"/>
<path d="M105.938 82.6668H89.4729C89.1401 82.6512 88.8211 82.5281 88.5637 82.3157C88.3062 82.1033 88.124 81.813 88.0442 81.4881L82.5365 55.7975C82.497 55.6567 82.4913 55.5085 82.5197 55.3651C82.5481 55.2217 82.6099 55.087 82.7 54.9721C82.7901 54.8572 82.906 54.7653 83.0381 54.7039C83.1703 54.6425 83.3151 54.6133 83.4606 54.6188H99.9254C100.258 54.6344 100.577 54.7575 100.835 54.9699C101.092 55.1823 101.274 55.4726 101.354 55.7975L106.856 81.4881C106.897 81.6285 106.904 81.7766 106.876 81.9201C106.848 82.0636 106.787 82.1985 106.697 82.3136C106.608 82.4287 106.492 82.5207 106.36 82.5822C106.228 82.6436 106.083 82.6726 105.938 82.6668Z" fill="#0F5E84"/>
<path d="M107.824 68.1704L103.729 68.0158C103.236 67.9987 102.746 68.086 102.289 68.2718L100.165 69.1251C99.9655 69.2044 99.7841 69.3232 99.6316 69.4745C99.4792 69.6258 99.3586 69.8065 99.2773 70.0057C99.196 70.2049 99.1555 70.4185 99.1583 70.6337C99.1612 70.849 99.2072 71.0615 99.2938 71.2584L100.144 73.1038C100.315 73.4617 100.604 73.7493 100.962 73.9183C101.32 74.0874 101.725 74.1274 102.109 74.0318L104.451 73.4451C104.451 73.4451 108.849 73.0931 109.008 70.7784L107.824 68.1704Z" fill="#FFB573"/>
<path d="M119.132 40.2031C120.147 41.8031 121.076 43.2645 121.99 44.8325C122.903 46.4005 123.801 47.9525 124.645 49.5738C125.49 51.1951 126.292 52.8698 127.02 54.6618C127.397 55.6002 127.72 56.5601 127.986 57.5365C128.329 58.7264 128.486 59.9623 128.454 61.2005V61.4085C128.455 61.444 128.455 61.4796 128.454 61.5151C128.454 61.7071 128.4 61.8991 128.363 62.0911C128.326 62.2831 128.278 62.4325 128.225 62.6245C128.172 62.8165 128.114 62.9178 128.055 63.0671C127.852 63.5286 127.592 63.9623 127.28 64.3578C126.846 64.9023 126.352 65.396 125.809 65.8298C124.973 66.4905 124.085 67.081 123.153 67.5951C121.513 68.4954 119.825 69.3037 118.097 70.0165C116.424 70.7311 114.756 71.3818 113.078 71.9951C111.399 72.6085 109.748 73.2005 108 73.7871L105.977 67.0671C107.57 66.6298 109.195 66.0911 110.783 65.5471C112.371 65.0031 113.97 64.3951 115.478 63.7605C116.959 63.1464 118.402 62.4465 119.802 61.6645C120.392 61.3357 120.955 60.9594 121.485 60.5391C121.625 60.4331 121.749 60.3094 121.857 60.1711C121.811 60.2228 121.775 60.2825 121.751 60.3471C121.751 60.3951 121.724 60.4271 121.698 60.4858C121.677 60.5484 121.661 60.6126 121.65 60.6778C121.628 60.7597 121.613 60.8437 121.607 60.9285C121.607 60.9605 121.607 60.9658 121.607 60.9551V60.9178C121.57 60.4117 121.472 59.9121 121.315 59.4298C121.103 58.7315 120.851 58.046 120.561 57.3765C119.912 55.9002 119.178 54.4631 118.362 53.0725C117.534 51.6431 116.652 50.2138 115.707 48.8058C114.761 47.3978 113.795 45.9951 112.823 44.7151L119.132 40.2031Z" fill="#0F5E84"/>
<g opacity="0.7">
<path d="M119.132 40.2031C120.147 41.8031 121.076 43.2645 121.99 44.8325C122.903 46.4005 123.801 47.9525 124.645 49.5738C125.49 51.1951 126.292 52.8698 127.02 54.6618C127.397 55.6002 127.72 56.5601 127.986 57.5365C128.329 58.7264 128.486 59.9623 128.454 61.2005V61.4085C128.455 61.444 128.455 61.4796 128.454 61.5151C128.454 61.7071 128.4 61.8991 128.363 62.0911C128.326 62.2831 128.278 62.4325 128.225 62.6245C128.172 62.8165 128.114 62.9178 128.055 63.0671C127.852 63.5286 127.592 63.9623 127.28 64.3578C126.846 64.9023 126.352 65.396 125.809 65.8298C124.973 66.4905 124.085 67.081 123.153 67.5951C121.513 68.4954 119.825 69.3037 118.097 70.0165C116.424 70.7311 114.756 71.3818 113.078 71.9951C111.399 72.6085 109.748 73.2005 108 73.7871L105.977 67.0671C107.57 66.6298 109.195 66.0911 110.783 65.5471C112.371 65.0031 113.97 64.3951 115.478 63.7605C116.959 63.1464 118.402 62.4465 119.802 61.6645C120.392 61.3357 120.955 60.9594 121.485 60.5391C121.625 60.4331 121.749 60.3094 121.857 60.1711C121.811 60.2228 121.775 60.2825 121.751 60.3471C121.751 60.3951 121.724 60.4271 121.698 60.4858C121.677 60.5484 121.661 60.6126 121.65 60.6778C121.628 60.7597 121.613 60.8437 121.607 60.9285C121.607 60.9605 121.607 60.9658 121.607 60.9551V60.9178C121.57 60.4117 121.472 59.9121 121.315 59.4298C121.103 58.7315 120.851 58.046 120.561 57.3765C119.912 55.9002 119.178 54.4631 118.362 53.0725C117.534 51.6431 116.652 50.2138 115.707 48.8058C114.761 47.3978 113.795 45.9951 112.823 44.7151L119.132 40.2031Z" fill="white"/>
</g>
<path d="M113.759 58.7092C113.723 58.7087 113.689 58.6992 113.658 58.6815C113.627 58.6637 113.602 58.6384 113.583 58.6079C113.568 58.5846 113.557 58.5584 113.552 58.5308C113.547 58.5033 113.547 58.4749 113.553 58.4475C113.559 58.4201 113.57 58.3942 113.587 58.3714C113.603 58.3485 113.623 58.3292 113.647 58.3145L114.476 57.7812C115.249 57.2914 115.856 56.5774 116.217 55.7336C116.577 54.8898 116.674 53.9561 116.494 53.0559L114.826 44.5759C114.704 43.9418 114.373 43.3676 113.885 42.9462C113.398 42.5248 112.783 42.2808 112.141 42.2537C111.498 42.2265 110.865 42.4178 110.345 42.7967C109.824 43.1755 109.445 43.7197 109.271 44.3412L106.907 52.6559C106.649 53.5348 106.663 54.4717 106.948 55.3424C107.233 56.213 107.774 56.9762 108.501 57.5305L109.287 58.1279C109.331 58.1626 109.36 58.2135 109.367 58.2695C109.374 58.3255 109.358 58.3819 109.324 58.4265C109.307 58.4484 109.286 58.4667 109.263 58.4804C109.239 58.4941 109.213 58.5029 109.186 58.5064C109.158 58.5099 109.131 58.5079 109.104 58.5006C109.078 58.4933 109.053 58.4808 109.032 58.4639L108.288 57.8719C107.489 57.2679 106.893 56.4344 106.577 55.4818C106.261 54.5292 106.241 53.5027 106.52 52.5385L108.888 44.2239C109.092 43.5139 109.527 42.8931 110.124 42.4611C110.72 42.0291 111.444 41.811 112.179 41.8417C112.915 41.8725 113.618 42.1503 114.177 42.6307C114.736 43.111 115.118 43.766 115.262 44.4905L116.93 52.9759C117.126 53.9593 117.021 54.9796 116.627 55.9016C116.234 56.8236 115.57 57.6037 114.725 58.1385L113.892 58.6719C113.873 58.6868 113.852 58.6978 113.829 58.7042C113.806 58.7106 113.782 58.7123 113.759 58.7092Z" fill="#263238"/>
<path d="M115.034 44.7525L109.069 44.5019C109.041 44.5005 109.014 44.4936 108.989 44.4816C108.963 44.4696 108.941 44.4527 108.922 44.4319C108.903 44.4111 108.889 44.3868 108.88 44.3604C108.87 44.3339 108.866 44.3059 108.867 44.2779C108.873 44.2222 108.899 44.1706 108.94 44.1331C108.981 44.0956 109.035 44.0749 109.091 44.0752L115.05 44.3259C115.078 44.3272 115.105 44.3341 115.13 44.3461C115.156 44.3581 115.178 44.375 115.197 44.3958C115.216 44.4166 115.23 44.4409 115.239 44.4674C115.249 44.4938 115.253 44.5218 115.252 44.5499C115.251 44.5776 115.245 44.605 115.233 44.6303C115.222 44.6557 115.206 44.6785 115.185 44.6974C115.165 44.7163 115.141 44.7309 115.115 44.7403C115.089 44.7498 115.061 44.754 115.034 44.7525Z" fill="#263238"/>
<path d="M112.133 42.2666C112.078 42.2653 112.025 42.2431 111.986 42.2045C111.947 42.1659 111.923 42.1138 111.92 42.0586C111.92 40.9919 111.591 39.1412 110.598 38.7359C110.57 38.7266 110.545 38.7118 110.524 38.6923C110.502 38.6729 110.485 38.6492 110.473 38.6227C110.46 38.5963 110.454 38.5676 110.453 38.5385C110.453 38.5094 110.458 38.4805 110.469 38.4535C110.48 38.4265 110.496 38.4021 110.517 38.3816C110.537 38.3612 110.562 38.3452 110.589 38.3347C110.616 38.3242 110.645 38.3194 110.674 38.3205C110.703 38.3216 110.731 38.3287 110.757 38.3412C112.228 38.9492 112.351 41.7332 112.351 42.0746C112.351 42.1307 112.329 42.1848 112.291 42.2255C112.252 42.2662 112.199 42.2905 112.144 42.2932L112.133 42.2666Z" fill="#263238"/>
<path d="M93.8871 49.5151H93.8446C93.7898 49.5035 93.7417 49.4707 93.7109 49.4238C93.6801 49.3768 93.6689 49.3196 93.6799 49.2644C94.381 45.7604 97.2809 40.2298 99.8356 38.5978C99.8589 38.5832 99.8849 38.5735 99.912 38.5691C99.9391 38.5647 99.9668 38.5657 99.9934 38.5722C100.02 38.5786 100.045 38.5903 100.067 38.6066C100.09 38.6229 100.108 38.6435 100.122 38.6671C100.138 38.69 100.149 38.7157 100.154 38.7429C100.159 38.77 100.158 38.7979 100.152 38.8249C100.146 38.8519 100.135 38.8773 100.119 38.8997C100.103 38.9221 100.082 38.941 100.059 38.9551C97.589 40.5231 94.774 45.8884 94.0942 49.3391C94.0855 49.3881 94.0601 49.4325 94.0222 49.4646C93.9844 49.4968 93.9366 49.5146 93.8871 49.5151Z" fill="#263238"/>
<path d="M95.6275 50.0638C95.2982 50.9118 94.5653 51.4238 94.0341 51.2051C93.503 50.9865 93.2959 50.1385 93.6252 49.2691C93.9545 48.3998 94.6874 47.9091 95.2185 48.1331C95.7497 48.3571 95.9621 49.2158 95.6275 50.0638Z" fill="white"/>
<path d="M109.653 58.3259C109.653 58.7206 109.408 59.0352 109.148 59.0246C108.888 59.0139 108.686 58.6832 108.702 58.2832C108.718 57.8832 108.946 57.5686 109.207 57.5846C109.467 57.6006 109.669 57.9259 109.653 58.3259Z" fill="white"/>
<path d="M114.231 58.518C114.231 58.9126 113.992 59.2273 113.727 59.2166C113.461 59.206 113.27 58.8753 113.286 58.4753C113.302 58.0753 113.525 57.766 113.817 57.7766C114.109 57.7873 114.247 58.134 114.231 58.518Z" fill="white"/>
<path d="M204.295 51.1196L203.764 51.0876C203.853 49.9521 203.705 48.8106 203.331 47.7355C202.956 46.6603 202.364 45.675 201.59 44.8421C200.817 44.0091 199.879 43.3467 198.837 42.8969C197.795 42.447 196.671 42.2196 195.537 42.229V41.6956C196.744 41.6853 197.94 41.927 199.049 42.4054C200.158 42.8837 201.156 43.5883 201.979 44.4744C202.803 45.3604 203.434 46.4087 203.832 47.5527C204.231 48.6966 204.389 49.9113 204.295 51.1196Z" fill="#0F5E84"/>
<path d="M204.577 53.3555L204.27 57.7715L204.801 57.8088L205.108 53.3928L204.577 53.3555Z" fill="#0F5E84"/>
<path d="M195.536 43.5619H158.888C156.887 43.5949 154.97 44.3743 153.509 45.7485C152.048 47.1226 151.149 48.9933 150.985 50.9966L150.651 55.9512C150.575 56.9046 150.697 57.8634 151.011 58.7665C151.324 59.6697 151.822 60.4974 152.471 61.1968C153.121 61.8963 153.908 62.4522 154.784 62.8291C155.659 63.206 156.603 63.3956 157.555 63.3859H194.203L201.309 67.7859L202.435 50.9966C202.512 50.0435 202.39 49.0848 202.077 48.1816C201.764 47.2785 201.268 46.4507 200.618 45.7512C199.969 45.0516 199.182 44.4956 198.307 44.1187C197.432 43.7417 196.488 43.5521 195.536 43.5619Z" fill="#0F5E84"/>
<path d="M193.678 50.6611H159.734V51.8985H193.678V50.6611Z" fill="white"/>
<path d="M193.383 55.0508H168.182V56.2881H193.383V55.0508Z" fill="white"/>
<path d="M140.408 70.0688H177.863C178.836 70.0582 179.802 70.2516 180.697 70.6366C181.592 71.0217 182.397 71.5899 183.062 72.3051C183.726 73.0202 184.234 73.8666 184.554 74.7901C184.875 75.7136 185 76.694 184.921 77.6688L184.581 82.7354C184.413 84.7826 183.493 86.6939 182 88.0984C180.508 89.5028 178.548 90.3001 176.503 90.3354H139.043L131.172 94.8421L132.33 77.6688C132.497 75.6212 133.416 73.7091 134.909 72.3045C136.402 70.8998 138.362 70.1029 140.408 70.0688Z" fill="white"/>
<path opacity="0.15" d="M140.408 70.0688H177.863C178.836 70.0582 179.802 70.2516 180.697 70.6366C181.592 71.0217 182.397 71.5899 183.062 72.3051C183.726 73.0202 184.234 73.8666 184.554 74.7901C184.875 75.7136 185 76.694 184.921 77.6688L184.581 82.7354C184.413 84.7826 183.493 86.6939 182 88.0984C180.508 89.5028 178.548 90.3001 176.503 90.3354H139.043L131.172 94.8421L132.33 77.6688C132.497 75.6212 133.416 73.7091 134.909 72.3045C136.402 70.8998 138.362 70.1029 140.408 70.0688Z" fill="#0F5E84"/>
<path opacity="0.5" d="M175.964 77.3281H141.25V78.5975H175.964V77.3281Z" fill="#0F5E84"/>
<path opacity="0.5" d="M154.664 81.8125H140.945V83.0818H154.664V81.8125Z" fill="#0F5E84"/>
<path opacity="0.5" d="M166.791 81.8125H158.027V83.0818H166.791V81.8125Z" fill="#0F5E84"/>
</g>
<defs>
<clipPath id="clip0_26_5961">
<rect width="240" height="208" fill="white" transform="translate(0.5)"/>
</clipPath>
</defs>
</svg>
