<svg width="277" height="226" viewBox="0 0 277 226" fill="none" xmlns="http://www.w3.org/2000/svg">
<g filter="url(#filter0_d_26_5557)">
<rect x="101" y="101" width="24" height="24" rx="12" fill="url(#paint0_radial_26_5557)" shape-rendering="crispEdges"/>
<rect x="100.5" y="100.5" width="25" height="25" rx="12.5" stroke="black" shape-rendering="crispEdges"/>
<path d="M114.496 118V116.138H109.638V114.794L114.258 108.2H116.162V114.668H117.492V116.138H116.162V118H114.496ZM111.444 114.668H114.594V110.048L111.444 114.668Z" fill="white"/>
</g>
<path d="M126 112.5C125.724 112.5 125.5 112.724 125.5 113C125.5 113.276 125.724 113.5 126 113.5V112.5ZM198.887 113L196 110.113L193.113 113L196 115.887L198.887 113ZM126 113V113.5H196V113V112.5H126V113Z" fill="#191919"/>
<path d="M207.105 108.168C206.396 108.168 205.752 108.028 205.173 107.748C204.604 107.468 204.147 107.039 203.801 106.46C203.465 105.881 203.297 105.153 203.297 104.276V98.2H204.977V104.29C204.977 104.822 205.066 105.261 205.243 105.606C205.421 105.951 205.668 106.213 205.985 106.39C206.312 106.558 206.695 106.642 207.133 106.642C207.581 106.642 207.964 106.558 208.281 106.39C208.608 106.213 208.855 105.951 209.023 105.606C209.201 105.261 209.289 104.822 209.289 104.29V98.2H210.969V104.276C210.969 105.153 210.797 105.881 210.451 106.46C210.106 107.039 209.639 107.468 209.051 107.748C208.463 108.028 207.815 108.168 207.105 108.168ZM212.8 111.08V100.944H214.298L214.48 101.966C214.63 101.761 214.807 101.569 215.012 101.392C215.227 101.205 215.484 101.056 215.782 100.944C216.09 100.832 216.44 100.776 216.832 100.776C217.495 100.776 218.078 100.939 218.582 101.266C219.096 101.593 219.497 102.036 219.786 102.596C220.076 103.147 220.22 103.777 220.22 104.486C220.22 105.195 220.071 105.83 219.772 106.39C219.483 106.941 219.082 107.375 218.568 107.692C218.064 108.009 217.486 108.168 216.832 108.168C216.3 108.168 215.834 108.07 215.432 107.874C215.04 107.669 214.723 107.379 214.48 107.006V111.08H212.8ZM216.482 106.712C216.874 106.712 217.224 106.619 217.532 106.432C217.84 106.245 218.078 105.984 218.246 105.648C218.424 105.312 218.512 104.925 218.512 104.486C218.512 104.038 218.424 103.646 218.246 103.31C218.078 102.974 217.84 102.713 217.532 102.526C217.224 102.339 216.874 102.246 216.482 102.246C216.081 102.246 215.726 102.339 215.418 102.526C215.12 102.713 214.882 102.974 214.704 103.31C214.536 103.646 214.452 104.033 214.452 104.472C214.452 104.92 214.536 105.312 214.704 105.648C214.882 105.975 215.12 106.236 215.418 106.432C215.726 106.619 216.081 106.712 216.482 106.712ZM221.851 111.08V100.944H223.349L223.531 101.966C223.68 101.761 223.858 101.569 224.063 101.392C224.278 101.205 224.534 101.056 224.833 100.944C225.141 100.832 225.491 100.776 225.883 100.776C226.546 100.776 227.129 100.939 227.633 101.266C228.146 101.593 228.548 102.036 228.837 102.596C229.126 103.147 229.271 103.777 229.271 104.486C229.271 105.195 229.122 105.83 228.823 106.39C228.534 106.941 228.132 107.375 227.619 107.692C227.115 108.009 226.536 108.168 225.883 108.168C225.351 108.168 224.884 108.07 224.483 107.874C224.091 107.669 223.774 107.379 223.531 107.006V111.08H221.851ZM225.533 106.712C225.925 106.712 226.275 106.619 226.583 106.432C226.891 106.245 227.129 105.984 227.297 105.648C227.474 105.312 227.563 104.925 227.563 104.486C227.563 104.038 227.474 103.646 227.297 103.31C227.129 102.974 226.891 102.713 226.583 102.526C226.275 102.339 225.925 102.246 225.533 102.246C225.132 102.246 224.777 102.339 224.469 102.526C224.17 102.713 223.932 102.974 223.755 103.31C223.587 103.646 223.503 104.033 223.503 104.472C223.503 104.92 223.587 105.312 223.755 105.648C223.932 105.975 224.17 106.236 224.469 106.432C224.777 106.619 225.132 106.712 225.533 106.712ZM234.206 108.168C233.506 108.168 232.89 108.019 232.358 107.72C231.826 107.412 231.411 106.983 231.112 106.432C230.813 105.881 230.664 105.247 230.664 104.528C230.664 103.781 230.809 103.128 231.098 102.568C231.397 102.008 231.812 101.569 232.344 101.252C232.885 100.935 233.511 100.776 234.22 100.776C234.911 100.776 235.513 100.93 236.026 101.238C236.539 101.546 236.936 101.961 237.216 102.484C237.496 102.997 237.636 103.576 237.636 104.22C237.636 104.313 237.636 104.416 237.636 104.528C237.636 104.64 237.627 104.757 237.608 104.878H231.868V103.8H235.942C235.923 103.287 235.751 102.885 235.424 102.596C235.097 102.297 234.691 102.148 234.206 102.148C233.861 102.148 233.543 102.227 233.254 102.386C232.965 102.545 232.736 102.783 232.568 103.1C232.4 103.408 232.316 103.8 232.316 104.276V104.682C232.316 105.121 232.395 105.499 232.554 105.816C232.722 106.133 232.946 106.376 233.226 106.544C233.515 106.703 233.837 106.782 234.192 106.782C234.584 106.782 234.906 106.698 235.158 106.53C235.419 106.362 235.611 106.138 235.732 105.858H237.44C237.309 106.297 237.095 106.693 236.796 107.048C236.497 107.393 236.129 107.669 235.69 107.874C235.251 108.07 234.757 108.168 234.206 108.168ZM239.187 108V100.944H240.685L240.839 102.26C241.007 101.952 241.217 101.691 241.469 101.476C241.721 101.252 242.015 101.079 242.351 100.958C242.696 100.837 243.074 100.776 243.485 100.776V102.554H242.897C242.617 102.554 242.351 102.591 242.099 102.666C241.847 102.731 241.628 102.843 241.441 103.002C241.264 103.151 241.124 103.361 241.021 103.632C240.918 103.893 240.867 104.225 240.867 104.626V108H239.187ZM248.169 108V97.92H249.849V108H248.169ZM255.014 108.168C254.342 108.168 253.735 108.014 253.194 107.706C252.662 107.389 252.242 106.955 251.934 106.404C251.635 105.844 251.486 105.205 251.486 104.486C251.486 103.749 251.64 103.105 251.948 102.554C252.256 101.994 252.676 101.56 253.208 101.252C253.749 100.935 254.356 100.776 255.028 100.776C255.7 100.776 256.302 100.935 256.834 101.252C257.375 101.56 257.795 101.989 258.094 102.54C258.402 103.091 258.556 103.735 258.556 104.472C258.556 105.209 258.402 105.853 258.094 106.404C257.786 106.955 257.361 107.389 256.82 107.706C256.288 108.014 255.686 108.168 255.014 108.168ZM255.014 106.726C255.35 106.726 255.653 106.642 255.924 106.474C256.204 106.306 256.428 106.054 256.596 105.718C256.764 105.382 256.848 104.967 256.848 104.472C256.848 103.977 256.764 103.567 256.596 103.24C256.437 102.904 256.218 102.652 255.938 102.484C255.667 102.316 255.364 102.232 255.028 102.232C254.701 102.232 254.398 102.316 254.118 102.484C253.838 102.652 253.614 102.904 253.446 103.24C253.278 103.567 253.194 103.977 253.194 104.472C253.194 104.967 253.278 105.382 253.446 105.718C253.614 106.054 253.833 106.306 254.104 106.474C254.384 106.642 254.687 106.726 255.014 106.726ZM264.233 108.168C263.859 108.168 263.523 108.117 263.225 108.014C262.926 107.921 262.665 107.79 262.441 107.622C262.217 107.445 262.03 107.244 261.881 107.02L261.699 108H260.201V97.92H261.881V101.98C262.105 101.635 262.408 101.35 262.791 101.126C263.173 100.893 263.649 100.776 264.219 100.776C264.881 100.776 265.465 100.939 265.969 101.266C266.482 101.583 266.883 102.022 267.173 102.582C267.471 103.133 267.621 103.767 267.621 104.486C267.621 105.186 267.476 105.816 267.187 106.376C266.897 106.936 266.496 107.375 265.983 107.692C265.479 108.009 264.895 108.168 264.233 108.168ZM263.883 106.712C264.275 106.712 264.625 106.619 264.933 106.432C265.241 106.236 265.479 105.975 265.647 105.648C265.824 105.312 265.913 104.92 265.913 104.472C265.913 104.033 265.824 103.646 265.647 103.31C265.479 102.974 265.241 102.713 264.933 102.526C264.625 102.339 264.275 102.246 263.883 102.246C263.481 102.246 263.127 102.339 262.819 102.526C262.52 102.713 262.282 102.974 262.105 103.31C261.937 103.646 261.853 104.033 261.853 104.472C261.853 104.92 261.937 105.312 262.105 105.648C262.282 105.975 262.52 106.236 262.819 106.432C263.127 106.619 263.481 106.712 263.883 106.712ZM272.555 108.168C271.855 108.168 271.239 108.019 270.707 107.72C270.175 107.412 269.76 106.983 269.461 106.432C269.163 105.881 269.013 105.247 269.013 104.528C269.013 103.781 269.158 103.128 269.447 102.568C269.746 102.008 270.161 101.569 270.693 101.252C271.235 100.935 271.86 100.776 272.569 100.776C273.26 100.776 273.862 100.93 274.375 101.238C274.889 101.546 275.285 101.961 275.565 102.484C275.845 102.997 275.985 103.576 275.985 104.22C275.985 104.313 275.985 104.416 275.985 104.528C275.985 104.64 275.976 104.757 275.957 104.878H270.217V103.8H274.291C274.273 103.287 274.1 102.885 273.773 102.596C273.447 102.297 273.041 102.148 272.555 102.148C272.21 102.148 271.893 102.227 271.603 102.386C271.314 102.545 271.085 102.783 270.917 103.1C270.749 103.408 270.665 103.8 270.665 104.276V104.682C270.665 105.121 270.745 105.499 270.903 105.816C271.071 106.133 271.295 106.376 271.575 106.544C271.865 106.703 272.187 106.782 272.541 106.782C272.933 106.782 273.255 106.698 273.507 106.53C273.769 106.362 273.96 106.138 274.081 105.858H275.789C275.659 106.297 275.444 106.693 275.145 107.048C274.847 107.393 274.478 107.669 274.039 107.874C273.601 108.07 273.106 108.168 272.555 108.168ZM224.019 128V118.2H227.855C228.546 118.2 229.12 118.307 229.577 118.522C230.044 118.737 230.394 119.035 230.627 119.418C230.861 119.791 230.977 120.225 230.977 120.72C230.977 121.215 230.87 121.63 230.655 121.966C230.441 122.302 230.156 122.559 229.801 122.736C229.456 122.913 229.078 123.021 228.667 123.058L228.877 122.904C229.316 122.913 229.708 123.03 230.053 123.254C230.408 123.478 230.688 123.772 230.893 124.136C231.099 124.491 231.201 124.887 231.201 125.326C231.201 125.839 231.075 126.301 230.823 126.712C230.581 127.113 230.221 127.431 229.745 127.664C229.269 127.888 228.686 128 227.995 128H224.019ZM225.699 126.628H227.743C228.294 126.628 228.723 126.497 229.031 126.236C229.339 125.975 229.493 125.611 229.493 125.144C229.493 124.677 229.335 124.309 229.017 124.038C228.7 123.758 228.266 123.618 227.715 123.618H225.699V126.628ZM225.699 122.344H227.617C228.159 122.344 228.569 122.223 228.849 121.98C229.129 121.728 229.269 121.383 229.269 120.944C229.269 120.515 229.129 120.179 228.849 119.936C228.569 119.684 228.154 119.558 227.603 119.558H225.699V122.344ZM235.106 128.168C234.528 128.168 234.047 128.07 233.664 127.874C233.282 127.678 232.997 127.417 232.81 127.09C232.624 126.763 232.53 126.409 232.53 126.026C232.53 125.578 232.642 125.191 232.866 124.864C233.1 124.537 233.44 124.285 233.888 124.108C234.336 123.921 234.887 123.828 235.54 123.828H237.318C237.318 123.455 237.267 123.147 237.164 122.904C237.062 122.652 236.903 122.465 236.688 122.344C236.474 122.223 236.198 122.162 235.862 122.162C235.48 122.162 235.153 122.251 234.882 122.428C234.612 122.596 234.444 122.857 234.378 123.212H232.726C232.782 122.708 232.95 122.279 233.23 121.924C233.51 121.56 233.879 121.28 234.336 121.084C234.803 120.879 235.312 120.776 235.862 120.776C236.525 120.776 237.09 120.893 237.556 121.126C238.023 121.35 238.378 121.677 238.62 122.106C238.872 122.526 238.998 123.035 238.998 123.632V128H237.57L237.402 126.866C237.309 127.053 237.188 127.225 237.038 127.384C236.898 127.543 236.735 127.683 236.548 127.804C236.362 127.916 236.147 128.005 235.904 128.07C235.671 128.135 235.405 128.168 235.106 128.168ZM235.484 126.838C235.755 126.838 235.993 126.791 236.198 126.698C236.413 126.595 236.595 126.455 236.744 126.278C236.903 126.091 237.024 125.886 237.108 125.662C237.192 125.438 237.248 125.2 237.276 124.948V124.92H235.722C235.396 124.92 235.125 124.962 234.91 125.046C234.696 125.121 234.542 125.233 234.448 125.382C234.355 125.531 234.308 125.704 234.308 125.9C234.308 126.096 234.355 126.264 234.448 126.404C234.542 126.544 234.677 126.651 234.854 126.726C235.032 126.801 235.242 126.838 235.484 126.838ZM244.139 128.168C243.449 128.168 242.828 128.014 242.277 127.706C241.736 127.389 241.311 126.955 241.003 126.404C240.705 125.844 240.555 125.209 240.555 124.5C240.555 123.763 240.705 123.119 241.003 122.568C241.311 122.008 241.736 121.569 242.277 121.252C242.828 120.935 243.453 120.776 244.153 120.776C245.031 120.776 245.768 121.009 246.365 121.476C246.963 121.933 247.345 122.563 247.513 123.366H245.749C245.656 123.011 245.46 122.731 245.161 122.526C244.872 122.321 244.527 122.218 244.125 122.218C243.78 122.218 243.463 122.307 243.173 122.484C242.893 122.661 242.669 122.918 242.501 123.254C242.343 123.59 242.263 123.996 242.263 124.472C242.263 124.836 242.31 125.158 242.403 125.438C242.497 125.718 242.627 125.956 242.795 126.152C242.973 126.339 243.173 126.483 243.397 126.586C243.621 126.689 243.864 126.74 244.125 126.74C244.396 126.74 244.639 126.698 244.853 126.614C245.077 126.521 245.264 126.385 245.413 126.208C245.572 126.031 245.684 125.821 245.749 125.578H247.513C247.345 126.362 246.963 126.992 246.365 127.468C245.768 127.935 245.026 128.168 244.139 128.168ZM253.683 128L250.561 124.136L253.361 120.944H255.363L251.877 124.822V123.52L255.783 128H253.683ZM249.133 128V117.92H250.813V128H249.133Z" fill="black"/>
<defs>
<filter id="filter0_d_26_5557" x="0" y="0" width="226" height="226" filterUnits="userSpaceOnUse" color-interpolation-filters="sRGB">
<feFlood flood-opacity="0" result="BackgroundImageFix"/>
<feColorMatrix in="SourceAlpha" type="matrix" values="0 0 0 0 0 0 0 0 0 0 0 0 0 0 0 0 0 0 127 0" result="hardAlpha"/>
<feOffset/>
<feGaussianBlur stdDeviation="50"/>
<feComposite in2="hardAlpha" operator="out"/>
<feColorMatrix type="matrix" values="0 0 0 0 0 0 0 0 0 0 0 0 0 0 0 0 0 0 0.25 0"/>
<feBlend mode="normal" in2="BackgroundImageFix" result="effect1_dropShadow_26_5557"/>
<feBlend mode="normal" in="SourceGraphic" in2="effect1_dropShadow_26_5557" result="shape"/>
</filter>
<radialGradient id="paint0_radial_26_5557" cx="0" cy="0" r="1" gradientUnits="userSpaceOnUse" gradientTransform="translate(113 113) rotate(90) scale(12)">
<stop stop-color="#70B4D5"/>
<stop offset="1" stop-color="#014A6E"/>
</radialGradient>
</defs>
</svg>
