<svg width="277" height="226" viewBox="0 0 277 226" fill="none" xmlns="http://www.w3.org/2000/svg">
<g filter="url(#filter0_d_26_5447)">
<rect x="101" y="101" width="24" height="24" rx="12" fill="url(#paint0_radial_26_5447)" shape-rendering="crispEdges"/>
<rect x="100.5" y="100.5" width="25" height="25" rx="12.5" stroke="black" shape-rendering="crispEdges"/>
<path d="M110.216 118V116.782C110.841 116.287 111.439 115.793 112.008 115.298C112.577 114.803 113.091 114.313 113.548 113.828C114.005 113.343 114.365 112.867 114.626 112.4C114.887 111.933 115.018 111.485 115.018 111.056C115.018 110.776 114.967 110.515 114.864 110.272C114.761 110.029 114.598 109.833 114.374 109.684C114.159 109.535 113.87 109.46 113.506 109.46C113.151 109.46 112.848 109.539 112.596 109.698C112.353 109.857 112.171 110.071 112.05 110.342C111.929 110.603 111.868 110.902 111.868 111.238H110.244C110.263 110.529 110.417 109.936 110.706 109.46C110.995 108.984 111.387 108.629 111.882 108.396C112.377 108.153 112.932 108.032 113.548 108.032C114.211 108.032 114.775 108.153 115.242 108.396C115.709 108.639 116.068 108.979 116.32 109.418C116.572 109.857 116.698 110.375 116.698 110.972C116.698 111.411 116.614 111.845 116.446 112.274C116.287 112.694 116.063 113.105 115.774 113.506C115.485 113.898 115.158 114.281 114.794 114.654C114.439 115.018 114.071 115.368 113.688 115.704C113.305 116.031 112.937 116.334 112.582 116.614H116.964V118H110.216Z" fill="white"/>
</g>
<path d="M126 112.5C125.724 112.5 125.5 112.724 125.5 113C125.5 113.276 125.724 113.5 126 113.5V112.5ZM198.887 113L196 110.113L193.113 113L196 115.887L198.887 113ZM126 113V113.5H196V113V112.5H126V113Z" fill="#191919"/>
<path d="M207.105 118.168C206.396 118.168 205.752 118.028 205.173 117.748C204.604 117.468 204.147 117.039 203.801 116.46C203.465 115.881 203.297 115.153 203.297 114.276V108.2H204.977V114.29C204.977 114.822 205.066 115.261 205.243 115.606C205.421 115.951 205.668 116.213 205.985 116.39C206.312 116.558 206.695 116.642 207.133 116.642C207.581 116.642 207.964 116.558 208.281 116.39C208.608 116.213 208.855 115.951 209.023 115.606C209.201 115.261 209.289 114.822 209.289 114.29V108.2H210.969V114.276C210.969 115.153 210.797 115.881 210.451 116.46C210.106 117.039 209.639 117.468 209.051 117.748C208.463 118.028 207.815 118.168 207.105 118.168ZM212.8 121.08V110.944H214.298L214.48 111.966C214.63 111.761 214.807 111.569 215.012 111.392C215.227 111.205 215.484 111.056 215.782 110.944C216.09 110.832 216.44 110.776 216.832 110.776C217.495 110.776 218.078 110.939 218.582 111.266C219.096 111.593 219.497 112.036 219.786 112.596C220.076 113.147 220.22 113.777 220.22 114.486C220.22 115.195 220.071 115.83 219.772 116.39C219.483 116.941 219.082 117.375 218.568 117.692C218.064 118.009 217.486 118.168 216.832 118.168C216.3 118.168 215.834 118.07 215.432 117.874C215.04 117.669 214.723 117.379 214.48 117.006V121.08H212.8ZM216.482 116.712C216.874 116.712 217.224 116.619 217.532 116.432C217.84 116.245 218.078 115.984 218.246 115.648C218.424 115.312 218.512 114.925 218.512 114.486C218.512 114.038 218.424 113.646 218.246 113.31C218.078 112.974 217.84 112.713 217.532 112.526C217.224 112.339 216.874 112.246 216.482 112.246C216.081 112.246 215.726 112.339 215.418 112.526C215.12 112.713 214.882 112.974 214.704 113.31C214.536 113.646 214.452 114.033 214.452 114.472C214.452 114.92 214.536 115.312 214.704 115.648C214.882 115.975 215.12 116.236 215.418 116.432C215.726 116.619 216.081 116.712 216.482 116.712ZM221.851 121.08V110.944H223.349L223.531 111.966C223.68 111.761 223.858 111.569 224.063 111.392C224.278 111.205 224.534 111.056 224.833 110.944C225.141 110.832 225.491 110.776 225.883 110.776C226.546 110.776 227.129 110.939 227.633 111.266C228.146 111.593 228.548 112.036 228.837 112.596C229.126 113.147 229.271 113.777 229.271 114.486C229.271 115.195 229.122 115.83 228.823 116.39C228.534 116.941 228.132 117.375 227.619 117.692C227.115 118.009 226.536 118.168 225.883 118.168C225.351 118.168 224.884 118.07 224.483 117.874C224.091 117.669 223.774 117.379 223.531 117.006V121.08H221.851ZM225.533 116.712C225.925 116.712 226.275 116.619 226.583 116.432C226.891 116.245 227.129 115.984 227.297 115.648C227.474 115.312 227.563 114.925 227.563 114.486C227.563 114.038 227.474 113.646 227.297 113.31C227.129 112.974 226.891 112.713 226.583 112.526C226.275 112.339 225.925 112.246 225.533 112.246C225.132 112.246 224.777 112.339 224.469 112.526C224.17 112.713 223.932 112.974 223.755 113.31C223.587 113.646 223.503 114.033 223.503 114.472C223.503 114.92 223.587 115.312 223.755 115.648C223.932 115.975 224.17 116.236 224.469 116.432C224.777 116.619 225.132 116.712 225.533 116.712ZM234.206 118.168C233.506 118.168 232.89 118.019 232.358 117.72C231.826 117.412 231.411 116.983 231.112 116.432C230.813 115.881 230.664 115.247 230.664 114.528C230.664 113.781 230.809 113.128 231.098 112.568C231.397 112.008 231.812 111.569 232.344 111.252C232.885 110.935 233.511 110.776 234.22 110.776C234.911 110.776 235.513 110.93 236.026 111.238C236.539 111.546 236.936 111.961 237.216 112.484C237.496 112.997 237.636 113.576 237.636 114.22C237.636 114.313 237.636 114.416 237.636 114.528C237.636 114.64 237.627 114.757 237.608 114.878H231.868V113.8H235.942C235.923 113.287 235.751 112.885 235.424 112.596C235.097 112.297 234.691 112.148 234.206 112.148C233.861 112.148 233.543 112.227 233.254 112.386C232.965 112.545 232.736 112.783 232.568 113.1C232.4 113.408 232.316 113.8 232.316 114.276V114.682C232.316 115.121 232.395 115.499 232.554 115.816C232.722 116.133 232.946 116.376 233.226 116.544C233.515 116.703 233.837 116.782 234.192 116.782C234.584 116.782 234.906 116.698 235.158 116.53C235.419 116.362 235.611 116.138 235.732 115.858H237.44C237.309 116.297 237.095 116.693 236.796 117.048C236.497 117.393 236.129 117.669 235.69 117.874C235.251 118.07 234.757 118.168 234.206 118.168ZM239.187 118V110.944H240.685L240.839 112.26C241.007 111.952 241.217 111.691 241.469 111.476C241.721 111.252 242.015 111.079 242.351 110.958C242.696 110.837 243.074 110.776 243.485 110.776V112.554H242.897C242.617 112.554 242.351 112.591 242.099 112.666C241.847 112.731 241.628 112.843 241.441 113.002C241.264 113.151 241.124 113.361 241.021 113.632C240.918 113.893 240.867 114.225 240.867 114.626V118H239.187ZM248.169 118V107.92H249.849V118H248.169ZM255.014 118.168C254.342 118.168 253.735 118.014 253.194 117.706C252.662 117.389 252.242 116.955 251.934 116.404C251.635 115.844 251.486 115.205 251.486 114.486C251.486 113.749 251.64 113.105 251.948 112.554C252.256 111.994 252.676 111.56 253.208 111.252C253.749 110.935 254.356 110.776 255.028 110.776C255.7 110.776 256.302 110.935 256.834 111.252C257.375 111.56 257.795 111.989 258.094 112.54C258.402 113.091 258.556 113.735 258.556 114.472C258.556 115.209 258.402 115.853 258.094 116.404C257.786 116.955 257.361 117.389 256.82 117.706C256.288 118.014 255.686 118.168 255.014 118.168ZM255.014 116.726C255.35 116.726 255.653 116.642 255.924 116.474C256.204 116.306 256.428 116.054 256.596 115.718C256.764 115.382 256.848 114.967 256.848 114.472C256.848 113.977 256.764 113.567 256.596 113.24C256.437 112.904 256.218 112.652 255.938 112.484C255.667 112.316 255.364 112.232 255.028 112.232C254.701 112.232 254.398 112.316 254.118 112.484C253.838 112.652 253.614 112.904 253.446 113.24C253.278 113.567 253.194 113.977 253.194 114.472C253.194 114.967 253.278 115.382 253.446 115.718C253.614 116.054 253.833 116.306 254.104 116.474C254.384 116.642 254.687 116.726 255.014 116.726ZM264.233 118.168C263.859 118.168 263.523 118.117 263.225 118.014C262.926 117.921 262.665 117.79 262.441 117.622C262.217 117.445 262.03 117.244 261.881 117.02L261.699 118H260.201V107.92H261.881V111.98C262.105 111.635 262.408 111.35 262.791 111.126C263.173 110.893 263.649 110.776 264.219 110.776C264.881 110.776 265.465 110.939 265.969 111.266C266.482 111.583 266.883 112.022 267.173 112.582C267.471 113.133 267.621 113.767 267.621 114.486C267.621 115.186 267.476 115.816 267.187 116.376C266.897 116.936 266.496 117.375 265.983 117.692C265.479 118.009 264.895 118.168 264.233 118.168ZM263.883 116.712C264.275 116.712 264.625 116.619 264.933 116.432C265.241 116.236 265.479 115.975 265.647 115.648C265.824 115.312 265.913 114.92 265.913 114.472C265.913 114.033 265.824 113.646 265.647 113.31C265.479 112.974 265.241 112.713 264.933 112.526C264.625 112.339 264.275 112.246 263.883 112.246C263.481 112.246 263.127 112.339 262.819 112.526C262.52 112.713 262.282 112.974 262.105 113.31C261.937 113.646 261.853 114.033 261.853 114.472C261.853 114.92 261.937 115.312 262.105 115.648C262.282 115.975 262.52 116.236 262.819 116.432C263.127 116.619 263.481 116.712 263.883 116.712ZM272.555 118.168C271.855 118.168 271.239 118.019 270.707 117.72C270.175 117.412 269.76 116.983 269.461 116.432C269.163 115.881 269.013 115.247 269.013 114.528C269.013 113.781 269.158 113.128 269.447 112.568C269.746 112.008 270.161 111.569 270.693 111.252C271.235 110.935 271.86 110.776 272.569 110.776C273.26 110.776 273.862 110.93 274.375 111.238C274.889 111.546 275.285 111.961 275.565 112.484C275.845 112.997 275.985 113.576 275.985 114.22C275.985 114.313 275.985 114.416 275.985 114.528C275.985 114.64 275.976 114.757 275.957 114.878H270.217V113.8H274.291C274.273 113.287 274.1 112.885 273.773 112.596C273.447 112.297 273.041 112.148 272.555 112.148C272.21 112.148 271.893 112.227 271.603 112.386C271.314 112.545 271.085 112.783 270.917 113.1C270.749 113.408 270.665 113.8 270.665 114.276V114.682C270.665 115.121 270.745 115.499 270.903 115.816C271.071 116.133 271.295 116.376 271.575 116.544C271.865 116.703 272.187 116.782 272.541 116.782C272.933 116.782 273.255 116.698 273.507 116.53C273.769 116.362 273.96 116.138 274.081 115.858H275.789C275.659 116.297 275.444 116.693 275.145 117.048C274.847 117.393 274.478 117.669 274.039 117.874C273.601 118.07 273.106 118.168 272.555 118.168Z" fill="black"/>
<defs>
<filter id="filter0_d_26_5447" x="0" y="0" width="226" height="226" filterUnits="userSpaceOnUse" color-interpolation-filters="sRGB">
<feFlood flood-opacity="0" result="BackgroundImageFix"/>
<feColorMatrix in="SourceAlpha" type="matrix" values="0 0 0 0 0 0 0 0 0 0 0 0 0 0 0 0 0 0 127 0" result="hardAlpha"/>
<feOffset/>
<feGaussianBlur stdDeviation="50"/>
<feComposite in2="hardAlpha" operator="out"/>
<feColorMatrix type="matrix" values="0 0 0 0 0 0 0 0 0 0 0 0 0 0 0 0 0 0 0.25 0"/>
<feBlend mode="normal" in2="BackgroundImageFix" result="effect1_dropShadow_26_5447"/>
<feBlend mode="normal" in="SourceGraphic" in2="effect1_dropShadow_26_5447" result="shape"/>
</filter>
<radialGradient id="paint0_radial_26_5447" cx="0" cy="0" r="1" gradientUnits="userSpaceOnUse" gradientTransform="translate(113 113) rotate(90) scale(12)">
<stop stop-color="#70B4D5"/>
<stop offset="1" stop-color="#014A6E"/>
</radialGradient>
</defs>
</svg>
